<?xml version="1.0" encoding="utf-8"?>
<!-- Generator: Adobe Illustrator 18.1.1, SVG Export Plug-In . SVG Version: 6.00 Build 0)  -->
<svg version="1.1" id="Layer_1" xmlns="http://www.w3.org/2000/svg" xmlns:xlink="http://www.w3.org/1999/xlink" x="0px" y="0px"
	 viewBox="0 0 100 100" enable-background="new 0 0 100 100" xml:space="preserve">
<g>
	<path fill="#2FBEEC" d="M71.3,14.2H28.1c-2.9,0-5.3,2.4-5.3,5.3v61.4c0,2.9,2.4,5.3,5.3,5.3h43.2c2.9,0,5.3-2.4,5.3-5.3V19.5
		C76.6,16.6,74.2,14.2,71.3,14.2z M49.9,84.1c-1,0-1.8-0.8-1.8-1.8c0-1,0.8-1.8,1.8-1.8c1,0,1.8,0.8,1.8,1.8
		C51.6,83.3,50.8,84.1,49.9,84.1z M68.6,78.2H30.8v-56h37.9V78.2z"/>
</g>
</svg>
