<?xml version="1.0" encoding="utf-8"?>
<!-- Generator: Adobe Illustrator 18.1.1, SVG Export Plug-In . SVG Version: 6.00 Build 0)  -->
<svg version="1.1" id="Layer_1" xmlns="http://www.w3.org/2000/svg" xmlns:xlink="http://www.w3.org/1999/xlink" x="0px" y="0px"
	 viewBox="0 0 100 100" enable-background="new 0 0 100 100" xml:space="preserve">
<g>
	<path fill="#2FBEEC" d="M60.9,14.3V86h20.5V14.3H60.9z M75.7,68h-9v-9h9V68z M75.7,50h-9v-9h9V50z M75.7,32h-9v-9h9V32z"/>
	<path fill="#2FBEEC" d="M48.6,27H35.2v5h-8.2v-8h-3v8h-5.5v54h36V32h-6V27z M33.3,68h-9v-9h9V68z M33.3,50h-9v-9h9V50z M48.6,68h-9
		v-9h9V68z M48.6,50h-9v-9h9V50z"/>
</g>
</svg>
