<?xml version="1.0" encoding="utf-8"?>
<!-- Generator: Adobe Illustrator 18.1.1, SVG Export Plug-In . SVG Version: 6.00 Build 0)  -->
<svg version="1.1" id="Layer_1" xmlns="http://www.w3.org/2000/svg" xmlns:xlink="http://www.w3.org/1999/xlink" x="0px" y="0px"
	 viewBox="0 0 174.9 26.8" enable-background="new 0 0 174.9 26.8" xml:space="preserve">
<g>
	<g>
		<path fill="#262F35" d="M0.4,2.4c0,0,13.6-1.6,16.9,3.6c3.2,5.2,0.4,9.2-4.8,16.7c0,0-1,1.3-0.8,2.1c0.3,0.8,0.3,1.2,1,0.9
			c0,0,4-2.9,6.5-10.6C21.7,7.4,20.5-1.5,0.4,2.4z M16.7,9.6l-3,0.1l-8.3,2.6C5.4,12,5.2,11.8,5,11.7L7,5.9V3L5.7,5.4l-1.2,6.2
			c-0.6,0-1,0.5-1,1s0.5,1,1,1c0.6,0,1-0.5,1-1l8.4-1.3L16.7,9.6z"/>
	</g>
</g>
<g>
	<g>
		<path fill="#2FBDEB" d="M0.1,2.5c0,0,13.6-1.6,16.9,3.6c3.2,5.2,0.4,9.2-4.8,16.7c0,0-1,1.3-0.8,2.1c0.3,0.8,0.3,1.2,1,0.9
			c0,0,4-2.9,6.5-10.6C21.4,7.4,20.2-1.4,0.1,2.5z M16.4,9.6l-3,0.1l-8.3,2.6c-0.1-0.2-0.3-0.4-0.5-0.6L6.7,6V3L5.4,5.5l-1.2,6.2
			c-0.6,0-1,0.5-1,1s0.5,1,1,1c0.6,0,1-0.5,1-1l8.4-1.3L16.4,9.6z"/>
	</g>
</g>
<text transform="matrix(1 0 0 1 25.0285 13.8379)"><tspan x="0" y="0" fill="#F2F2F2" font-family="'OpenSans'" font-size="16.1482">Meeting </tspan><tspan x="65.4" y="0" fill="#F2F2F2" font-family="'OpenSans-Bold'" font-size="16.1482">Tomorrow</tspan></text>
<text transform="matrix(1 0 0 1 27.5099 25.3167)" fill="#F2F2F2" font-family="'OpenSans-Semibold'" font-size="5.3827">ANY TIME. ANY PLACE. NATIONWIDE AUDIO VISUAL.</text>
</svg>
