<?xml version="1.0" encoding="utf-8"?>
<!-- Generator: Adobe Illustrator 18.1.1, SVG Export Plug-In . SVG Version: 6.00 Build 0)  -->
<svg version="1.1"
	 id="svg2" sodipodi:docname="united states.svg" inkscape:version="0.48.2 r9819" xmlns:inkscape="http://www.inkscape.org/namespaces/inkscape" xmlns:sodipodi="http://sodipodi.sourceforge.net/DTD/sodipodi-0.dtd" xmlns:svg="http://www.w3.org/2000/svg" xmlns:dc="http://purl.org/dc/elements/1.1/" xmlns:cc="http://creativecommons.org/ns#" xmlns:rdf="http://www.w3.org/1999/02/22-rdf-syntax-ns#"
	 xmlns="http://www.w3.org/2000/svg" xmlns:xlink="http://www.w3.org/1999/xlink" x="0px" y="0px" viewBox="-242 107.6 193 125.4"
	 enable-background="new -242 107.6 193 125.4" xml:space="preserve">
<sodipodi:namedview  id="namedview8" inkscape:pageopacity="0" inkscape:current-layer="svg2" inkscape:pageshadow="2" inkscape:window-maximized="0" inkscape:window-x="0" inkscape:window-width="640" inkscape:window-y="0" inkscape:window-height="480" guidetolerance="10" gridtolerance="10" inkscape:zoom="0.15439524" showgrid="false" inkscape:cy="614.375" inkscape:cx="945.625" borderopacity="1" bordercolor="#666666" pagecolor="#ffffff" objecttolerance="10">
	</sodipodi:namedview>
<path id="path4" fill="#EC7F4C" d="M-221.9,113.1c1.4,0.4,2.8,1,4.2,1.2c2.1,0.6,4.3,1.2,6.5,1.7c2.2,0.6,4.4,1.1,6.6,1.6
	c2.3,0.5,4.6,1.1,6.9,1.4c1.3,0.3,2.6,0.6,3.9,0.8c1.9,0.5,3.8,0.5,5.7,0.9c2.2,0.6,4.6,0.6,6.8,1.1c4.4,0.4,8.8,1.2,13.3,1.4
	c1.7,0.3,3.5,0.4,5.3,0.4c2.2,0,4.3,0.5,6.5,0.5c5,0.1,10.1,0.2,15.1,0.2c0-0.6,0-1.2,0-1.7c0.4,0.1,0.9,0.1,1.1,0.4
	c0.2,0.8,0,1.8,0.6,2.4c0.8,0.2,1.6,0.3,2.4,0.5c0.1,0.2,0.1,0.3,0.2,0.5c0.7,0,1.1-0.6,1.8-0.6c1.2,0.3,2.2,1.5,3.5,1.1
	c0,0.1-0.1,0.2-0.1,0.3c0.8,0.2,1.3,1,2.2,0.8c0.5-0.3,1-0.6,1.5-0.9c0.2,0.2,0.3,0.7,0.7,0.7c0.6,0,1.2-0.1,1.8-0.2
	c0,0.1,0,0.3,0.1,0.4c0.6,0,1.2-0.1,1.7-0.1c-0.7,0.4-1.2,0.9-2,1.2c-1,0.3-1.9,0.8-2.5,1.5c-0.7,0.3-0.7,1.1-1.3,1.5
	c-0.7,0.5-1.4,1.2-2.1,1.7c0.4,0.3,0.9,0.6,1.4,0.3c0.5-0.2,0.9-0.4,1.4-0.6c0.4-0.2,0.7-0.6,1.2-0.7c0.1,0.1,0.2,0.2,0.3,0.4
	c-0.3,0.3-0.6,0.7-0.7,1.1c0.2,0,0.3,0.1,0.5,0.1c0.4-0.4,0.8,0.1,1.2,0.1c0.7-0.2,1.4-0.7,1.9-1.2c0.6-0.2,1.4-0.1,1.9-0.6
	c1.1-0.8,1.8-2.4,3.3-2.7c0.4-0.2,0.8-0.1,1.2,0.1c-0.3,0.2-0.7,0.3-1,0.4c-0.2,0.5-0.8,0.7-0.9,1.2c-0.2,0.5-0.3,0.9-0.4,1.4
	c0.4-0.3,0.7-0.7,1.1-1c0,0.1,0.1,0.2,0.1,0.2c0.4,0.1,0.9,0,1.3,0.3c0.4,0.4,0.7,0.9,1.1,1.3c0.4,0.1,0.9,0,1.3-0.2
	c0,0.1-0.1,0.2-0.1,0.3c0.3,0,0.6,0.1,0.9,0.1c0.6-0.3,1-0.8,1.6-1.1c0.7-0.3,1.4-0.2,2.1-0.4c0.5-0.2,0.9-0.5,1.3-0.7
	c0,0.5,0,1-0.1,1.4c1,0.2,2-0.3,2.9-0.6c0,0.3,0.1,1,0.1,1.4c0.2,0.4,0.5,0.8,0.7,1.2c-0.8,0.2-1.6-0.3-2.3,0.1
	c-0.2,0.1-0.4,0.2-0.7,0.1c-0.2,0-0.4,0-0.5,0c0-0.1,0-0.2,0-0.2c-0.2,0-0.3,0.1-0.5,0.1c0-0.1,0-0.2,0-0.2c-0.3,0-0.5,0.1-0.8,0.1
	c-0.2,0.2-0.3,0.4-0.5,0.5c-0.7,0-1.4,0.2-2.1,0.3c0,0.3,0.1,0.7-0.1,0.9c-0.3,0.1-0.5-0.1-0.8-0.2c-0.4,0.1-0.7,0.3-1,0.4
	c-0.1-0.2-0.2-0.4-0.3-0.5c-0.3,1.3-1,2.5-1.5,3.7c-0.6,0.7-0.9,1.6-1,2.5c1-0.7,1.4-1.9,2.2-2.7c0.3-0.4,0.5-0.9,0.9-1.2
	c0,0.6-0.2,1.1-0.5,1.6c-0.5,1-0.8,2.1-1,3.2c0.1,0.2,0.1,0.3,0.2,0.5c-0.6,0.1-0.6,0.8-0.5,1.3c0.1,0.9-0.3,1.7-0.4,2.6
	c0.1,0.8,0.3,1.6,0.3,2.4c0,0,0.1,0,0.1,0c0,0.1,0,0.2-0.1,0.4c0.1,0,0.2,0,0.2,0c0.1,0.8-0.4,1.7,0.2,2.3c0.5,0.6,0.6,1.3,0.9,2
	c0.5,0.1,1.1,0.3,1.6,0.1c0.6-0.3,1.1-0.7,1.5-1.2c0-0.6,0.2-1.1,0.5-1.6c0.4-0.7,0.3-1.5,0.3-2.3c-0.1-0.7-0.1-1.4-0.5-1.9
	c-0.4-0.6-0.6-1.4-0.9-2.1c0.3-0.7,0.3-1.5,0.1-2.2c0.1-0.2,0.3-0.4,0.4-0.6c0,0,0,0,0-0.1c0.2-0.6,0.2-1.3-0.1-1.8
	c0.3-0.1,0.6-0.4,0.6-0.8c0-0.5,0.5-0.7,0.9-0.9c0.1-0.3,0.2-0.6,0.3-1c0.1,0,0.2,0.1,0.3,0.1c-0.2,0.6-0.3,1.2-0.2,1.8
	c0.3-0.3,0.9-0.5,0.6-1.1c0.1-0.4-0.1-0.9,0.1-1.3c0.3-0.4,0.9-0.4,1.3-0.4c-0.4-0.2-1-0.4-0.9-1c0.3-0.3,0.6-0.8,1.1-0.8
	c0.3,0,0.6,0.2,0.8,0.4c0.3,0,0.6-0.1,0.9-0.1c0.6,0.8,1.6,1,2.6,1.1c0.4,0.3,0.6,0.9,0.9,1.3c-0.1,0-0.2,0-0.3,0
	c-0.1-0.1-0.3-0.2-0.4-0.3c0,0.2,0,0.4,0,0.5c1,0.5,1,1.7,0.8,2.7c-0.4,0.6-0.6,1.2-0.9,1.8c-0.2,0-0.4,0-0.6,0c0,0.6,0,1.1,0.3,1.6
	c0.2,0,0.5,0,0.7-0.1c0.6-0.5,0.6-1.5,1.4-1.9c0.4-0.2,0.8-0.6,1.3-0.3c0.4,0.5,0.7,1.1,0.7,1.7c0,0,0.1,0,0.1,0
	c0,0.2-0.1,0.3-0.1,0.5c0.1,0,0.2,0,0.2,0c0,0.2-0.1,0.3-0.1,0.5c0,0,0.1,0,0.2,0c0,0.1,0,0.3,0,0.4c0.6,0.9,0.7,2,0.7,3
	c-0.2,0.1-0.3,0.3-0.5,0.3c-0.2-0.2-0.3-0.4-0.4-0.5c-0.2,0.6-0.3,1.1-0.4,1.7c-0.2,0-0.3,0-0.5,0c0,0.4,0,0.8,0,1.3
	c-0.6,0.3-0.7,1.1-0.7,1.7c0.7,0.1,1.4,0.3,2.1,0.5c0.5,0.1,0.8,0.5,1.3,0.5c0.6-0.2,1.1-0.4,1.6-0.6c1.1-0.4,1.7-1.3,2.6-1.9
	c1-0.9,2.4-1.3,3.4-2.3c1-0.9,2.2-1.7,2.7-2.9c0.2,0,0.3-0.1,0.5-0.1c-0.1-0.4-0.3-1-0.8-1.1c-0.1-0.4-0.2-0.9-0.4-1.3
	c0.9-0.3,1.8-0.8,2.8-0.9c0.8-0.1,1.5,0,2.3,0.2c0.7-0.7,2.1-0.3,2.6-1.3c0.4-0.4,0.8-0.6,1.2-1c0.1-0.4-0.2-0.9-0.2-1.3
	c0.1,0,0.2-0.1,0.3-0.1c-0.3-0.4-0.7-0.7-1.2-0.8c0.4-1,1.2-1.7,1.8-2.5c0.6-1,1.1-2.1,2.3-2.5c1.2-0.4,2.5-0.4,3.7-0.9
	c1.6-0.6,3.2-1,4.9-1.3c0.4-0.1,0.9-0.1,1.3-0.3c0.3-0.5,0.4-1.1,0.5-1.6c0.2,0.1,0.4,0.2,0.6,0.3c0.1-0.2,0.1-0.4,0.2-0.6
	c0.2,0.1,0.4,0.2,0.6,0.3c0.1-0.5,0.3-1.1,0.4-1.6c0.1-0.6,0.7-0.9,0.8-1.5c-0.3-0.8-0.6-1.7-0.2-2.4c0.3-0.6-0.1-1.3,0.2-2
	c0.3-0.6,0.5-1.1,0.7-1.7c0,0,0,0,0.1,0c0.1-0.6,0.4-1.2,0.6-1.8c0.6,0.2,0.7,0.9,1.3,1.1c0.3-0.5,0.7-0.9,1.2-1.1
	c0-0.1,0-0.2,0-0.3c0.7,0.2,1.3,0.6,2,0.9c0,0.1,0,0.2,0,0.4c0.1,0,0.1,0,0.2,0c0,0.1-0.1,0.3-0.1,0.4c0.1,0,0.2,0,0.2,0
	c0,0.2-0.1,0.3-0.1,0.5c0.1,0,0.2,0,0.2,0c0,0.1-0.1,0.3-0.1,0.4c0.1,0,0.2,0,0.2,0c0,0.1-0.1,0.3-0.1,0.4c0.1,0,0.2,0,0.2,0
	c0,0.1-0.1,0.3-0.1,0.4c0.1,0,0.2,0,0.2,0c0,0.2-0.1,0.3-0.1,0.5c0.1,0,0.2,0,0.2,0c0,0.1-0.1,0.3-0.1,0.4c0.1,0,0.2,0,0.2,0
	c0,0.1-0.1,0.3-0.1,0.4c0,0,0.1,0,0.1,0c0.2,0.5,0.3,1.1,0.5,1.6c0,0.2,0.1,0.4,0.1,0.6c0.4,0.1,0.9,0.1,1.3,0.2
	c0.2,0.8,0.3,1.7,1.1,2c-0.1-0.2-0.1-0.5-0.2-0.7c0.7,0.3,1.3,0.8,1.5,1.5c0,0.6-0.5,1.1-1,1.3c-0.8,0.4-1.2,1.2-1.9,1.8
	c0-0.2,0-0.3-0.1-0.5c-0.6-0.2-0.9,0.5-1.3,0.7c0,0.2,0,0.4,0,0.5c-0.2,0-0.5,0-0.7-0.1c0,0.1,0,0.2,0,0.3c-0.1-0.4-0.4-0.7-0.7-0.8
	c0.3,0.6,0.3,1.3,0.1,2c0.1,0,0.2,0,0.3,0.1c-0.5,0.6-1.1,1-1.7,1.5c-0.2,0.1-0.4,0.3-0.6,0.4c-0.3,0.2-0.5-0.1-0.7-0.2
	c-0.2,0.3-0.5,0.6-0.4,1c0.1,0.2,0,0.4-0.1,0.6c-0.2,1-0.4,1.9-0.6,2.9c-0.2,0.5,0.1,0.9,0.4,1.3c-0.1,0.5-0.6,1.1-0.3,1.6
	c0.2,0.4,0.7,0.1,1,0.3c0.4,0.6,0.8,1.2,1.1,1.8c0.3,0,0.6,0,1,0c0.3-0.2,0.5-0.5,0.8-0.7c0.1,0.2,0.2,0.4,0.3,0.7
	c-0.6,0.1-1.2,0.4-1.8,0.5c-0.2,0.2-0.3,0.5-0.5,0.7c-0.1-0.3-0.2-0.6-0.5-0.8c-0.1,0.1-0.1,0.3-0.1,0.4c-0.1,0-0.2,0-0.4,0
	c0,0.2,0.1,0.4,0.1,0.6c-0.4,0.3-0.9,0.6-1.4,0.6c-0.1,0.6-0.8,0.7-1.2,1c-0.7,0.5-1.5,0.5-2.3,0.8c-0.4,0.2-0.8,0.2-1.3,0.3
	c-0.4,0.1-0.5,0.5-0.7,0.7c-0.5,0.3-0.9,0.7-1.4,0.9c-0.1,0.4-0.2,0.7-0.2,1c0.3-0.3,0.6-0.7,0.9-0.9c0.4,0,0.9,0.2,1.3-0.1
	c0.7-0.4,1.7-0.5,2-1.4c0.3,0,0.6,0.1,0.9,0.1c-0.4,1-1.3,1.3-2,1.9c-0.5,0.4-1.1,0.7-1.7,1c-0.9,0.3-1.9,0.4-2.4,1.2
	c0.3,0,0.6-0.1,0.9-0.1c0.3,1.4,0.5,2.8-0.1,4.2c-0.3,0.9-1,1.6-1.1,2.5c0,0.4-0.3,0.7-0.7,0.9c0-0.4,0-0.7,0-1.1
	c-0.6-0.1-1.2-0.2-1.6-0.6c-0.3-0.3-0.6-0.7-1-1c0,0.2,0,0.4-0.1,0.6c0.2,0.3,0.5,0.6,0.9,0.7c0.3,0.5,0.5,1.1,0.8,1.6
	c0.3,0.2,0.6,0.3,0.9,0.5c0.1,0.6,0.5,1.1,0.5,1.7c0.1,1.2-0.5,2.1-1.1,3.1c-0.1,1.1-0.1,2.2-0.6,3.2c-0.3,0-0.5-0.3-0.7-0.6
	c-0.1-1,0.3-2,0.5-2.9c-0.2-0.7-0.7-1.2-1.2-1.7c0,0.1,0,0.2-0.1,0.3c-0.3,0-0.6,0-0.9,0c-0.2-0.5-0.4-0.9-0.5-1.4
	c0.2-0.1,0.4-0.1,0.6-0.2c-0.3-0.2-0.6-0.3-0.8-0.5c0.1-0.4,0.4-0.7,0.4-1c-0.1-0.3-0.4-0.5-0.6-0.8c0.2-0.3,0.2-0.7,0.3-1.1
	c-0.1,0-0.2,0-0.2,0.1c-0.2,0.4-0.5,0.7-0.6,1.1c0.1,0.3,0.3,0.6,0.2,1c-0.4,1.1,0.6,2,0.8,3c0.1,0.3-0.1,0.5-0.3,0.7
	c0-0.1-0.1-0.2-0.1-0.3c-0.2,0-0.4,0.1-0.6,0.1c0-0.1,0-0.2,0-0.3c-0.4,0.1-0.8,0.2-1.2,0.3c0.7,0.2,1.4,0,2,0.4
	c0.4,0.2,0.8,0.4,1.1,0.7c0,0.4-0.1,0.7-0.2,1.1c0.1,0,0.2,0,0.3,0c0.1,0.5,0.2,1,0.3,1.5c-0.2-0.2-0.5-0.3-0.7-0.5
	c0.3,0.6,0.7,1.2,1.1,1.8c-0.2,0.1-0.5,0.1-0.7,0.2c-0.1-0.5-0.6-0.7-1-0.9c0.2,0.7,0.8,1.2,1.4,1.5c0-0.1,0-0.3,0.1-0.4
	c0.4-0.1,0.8-0.3,1.1-0.4c0.1,0.4,0.2,0.8,0.5,1.1c0.5,0.7,0.9,1.6,1.3,2.4c-0.1,0.1-0.2,0.2-0.3,0.3c-0.3-0.2-0.7-0.3-1.1-0.5
	c-0.6,0.7-1.7,0.7-2,1.5c0.4,0,0.7-0.2,1-0.5c0,0.1-0.1,0.3-0.1,0.4c0.5-0.5,1.3-0.5,2-0.7c0.2,0.1,0.3,0.3,0.4,0.5
	c0.4,0.3,0.3,0.7,0.4,1.2c-0.3,0.1-0.5,0.1-0.7,0.3c-0.1,0.4-0.1,0.8-0.3,1.1c-0.2,0.1-0.5,0.1-0.7,0.2c-0.3,0-0.5,0.1-0.8,0.1
	c0,0.1,0,0.2,0,0.2c0.1,0,0.2,0,0.3,0c-0.1,0.4-0.3,0.8-0.4,1.2c0.5,0.1,1,0.3,1.4,0.4c-0.2,0.6-0.4,1.3-1.1,1.4c0-0.1,0-0.3,0-0.3
	c-0.6,0.3-1.4,0.3-1.9,0.8c-0.5,0.7-1.3,1-1.7,1.7c-0.3,0.5-0.3,1.2-0.6,1.8c-0.3,0.4-0.9,0.3-1.3,0.5c-0.6,0.3-1.3,0.5-1.8,1
	c-0.5,0.6-0.7,1.4-0.7,2.2c0.1,0.8-0.6,1.5-1.3,1.5c-0.1,0.6-0.6,1-1,1.4c-0.6,0.7-1.3,1.2-2,1.7c0.1,0,0.2,0,0.3,0
	c0,0.1,0,0.2,0,0.3c-0.5,0.4-1.1,0.8-1.3,1.5c-0.2,0.7-0.7,1.2-0.7,1.8c-0.2,1.3-0.9,2.5-0.7,3.8c0.1,1.6,0.8,3,1.3,4.4
	c0.3,0.8,0.9,1.5,1.3,2.3c0.8,1.2,2,2.1,2.7,3.3c-0.1,0-0.3,0-0.4,0.1c0.1,0.6,0.2,1.3,0.5,1.8c0.7,1,1.4,2.1,2,3.2
	c1.5,1.8,1.1,4.3,1.3,6.6c-0.2-0.1-0.3-0.1-0.4-0.2c-0.1,0.5-0.5,1.3,0,1.7c-0.2,0.4-0.5,0.7-0.9,1c-0.4,0.3-1,0.2-1.5,0.3
	c0,0.1-0.1,0.2-0.1,0.3c-0.2,0-0.3,0-0.4,0c0,0.1-0.1,0.2-0.1,0.3c-0.6-0.4-0.4-1.2-0.7-1.8c-0.4-0.5-0.8-1-1.3-1.5
	c-0.4,0-0.7,0.2-1.1,0.3c-0.4-0.5-0.5-1-0.7-1.6c-0.1-0.5-0.6-0.7-0.9-1.1c-0.4-0.5-0.4-1.2-0.5-1.8c-0.2-0.1-0.3-0.1-0.5-0.2
	c0,0.4,0,0.8,0,1.1c-0.5-0.3-0.8-0.7-1-1.1c-0.4-0.7-1.1-1.3-1.5-1.9c0.5-0.6,0.9-1.2,1-2c-0.5,0-0.9-0.1-1.4-0.2
	c0.1,0.1,0.1,0.3,0.2,0.4c0.2,0,0.3,0,0.5,0c-0.1,0.3-0.1,0.6-0.2,0.9c-0.8-0.5-0.7-1.6-0.9-2.4c0,0,0.1,0,0.1,0
	c0.2-1,0.3-2.2-0.3-3.1c-0.2-0.3-0.3-0.6-0.4-0.9c-0.1,0-0.2,0-0.4,0.1c0-0.1,0-0.1,0-0.2c-0.2,0-0.3,0-0.5,0.1c0,0,0-0.1,0-0.1
	c-0.8,0-1-0.8-1.7-1.1c-0.1-0.7-0.8-0.9-1.2-1.4c-0.7-0.7-1.8-1-2.7-0.7c-0.1,0.3-0.1,0.6-0.5,0.7c-0.6,0.2-1,0.6-1.3,1.1
	c-0.6,0.1-1.2,0.3-1.8,0.3c0,0.1,0,0.2,0,0.2c-0.2-0.4-0.2-0.8-0.5-1c-1-0.6-2-1.2-3.2-1.5c0,0,0-0.1,0-0.1c-0.1,0-0.3,0-0.4,0
	c-1.1-0.2-2.2,0.2-3.2,0.4c-1.1,0.3-2.1,0.9-3.3,0.9c0.3-0.1,0.5-0.2,0.8-0.3c-0.3-0.7-0.6-1.3-1.1-1.8c-0.1,0.6-0.2,1.2-0.6,1.6
	c-0.7,0.2-1.4,0.5-2.1,0.3c-0.3-0.1-0.7-0.3-1-0.1c-0.4,0.2-0.9,0.1-1.3,0.2c-0.2,0.3-0.3,0.7-0.7,0.9c-0.5,0.3-1.1,0.6-1,1.3
	c0.3,0,0.5,0.1,0.8,0.1c0.1-0.3,0.3-0.6,0.4-0.9c0.2,0.1,0.3,0.1,0.5,0.1c0,0.2,0.1,0.3,0.1,0.5c0.1,0,0.2,0,0.4,0
	c-0.2,0.2-0.3,0.5-0.5,0.7c-0.2,0.2-0.7,0.2-0.8,0.6c-0.3,0.4,0.2,0.8,0.6,1c0.8,0.2,1.7,0.3,2.2,0.9c-0.1,0.6-0.8,0.9-1.3,0.6
	c-0.4-0.8-1.3-0.7-2-1c0-0.2,0-0.5,0.1-0.7c-0.7,0-1,0.8-0.9,1.4c-0.2,0.1-0.3,0.3-0.4,0.4c0,0-0.1,0-0.1,0
	c-0.1-0.2-0.2-0.4-0.3-0.6c-0.5,0-0.9,0.1-1.3,0.2c0,0.2-0.1,0.5-0.1,0.7c-1,0.1-1.9-0.5-2.8-0.9c0.2-0.2,0.4-0.4,0.6-0.6
	c-0.4-0.2-0.9-0.3-1.3-0.4c-0.1-0.3-0.2-0.6-0.2-0.9c-0.4-0.2-0.8-0.2-1.1,0.1c-0.3-0.7-1.1-0.3-1.3,0.3c0.3,0.1,0.5,0.2,0.8,0.2
	c-0.2,0.2-0.5,0.3-0.7,0.5c0-0.1,0-0.2,0-0.3c-0.7,0.2-1.5,0.3-2.1-0.2c-0.6-0.2-1.2-0.4-1.7-0.6c-0.7-0.2-1.5,0.1-2.2,0.1
	c-0.2,0.1-0.4,0.2-0.6,0.3c-0.6,0.2-1.3,0.3-1.9,0.6c-0.5,0.2-1.1,0.4-1.4,0.9c-0.2,0.3-0.6,0.5-0.9,0.7c-0.9,0.6-1.6,1.5-2.6,2
	c-1.2,0.7-2.5,1.1-3.5,2c-0.5,0.4-1,0.6-1.4,1c-0.1,0-0.1,0-0.2,0c0,0.1,0,0.2,0,0.3c-0.9,0.8-1.4,2-2,3c-0.3,0.5-0.4,1.2-0.5,1.8
	c0,0.5,0.2,1.1,0.2,1.6c0,0,0.1,0,0.1,0c0,0.1,0,0.3,0,0.4c0.3,0.5,0.3,1.1,0.4,1.6c0.4,0.4,0,1.2-0.6,1c-0.8-0.3-1.6-0.9-2.5-1
	c0,0.1,0,0.2,0,0.3c-0.7-0.2-1.3-0.7-2-1c-0.7-0.2-1.3-0.7-2-0.8c-0.5-0.1-0.5-0.8-0.7-1.2c-0.2-0.7-0.5-1.3-0.9-1.9
	c0.1,0,0.2,0,0.3,0c0-0.3,0-0.6,0-0.9c-0.2-0.1-0.3-0.1-0.5-0.2c0.1,0,0.2-0.1,0.2-0.1c0-0.4,0.3-0.9-0.1-1.2
	c-0.4-0.3-1-0.4-1.2-0.9c-0.3-0.5-0.5-1.1-0.9-1.6c-0.2-0.3-0.6-0.3-0.8-0.6c-0.4-1.3-0.9-2.5-1.5-3.8c-0.7-1.1-1.7-1.9-2.4-2.9
	c-0.9-0.3-1.8-0.4-2.7-0.5c-0.4-0.1-0.7-0.3-1-0.6c-0.1,0.1-0.2,0.2-0.2,0.4c-0.6,0.1-1.4,0.3-1.6,1c-0.4,1-0.9,1.9-1.7,2.6
	c-0.9-0.4-1.7-1-2.5-1.6c-1.1-0.5-2.1-1.3-2.6-2.4c-0.3-0.8-0.2-1.6-0.4-2.4c-0.2-0.7-0.6-1.4-1.1-2c-0.3-0.4-0.8-0.4-1.2-0.7
	c-0.8-0.7-1.4-1.6-2-2.5c-0.2-0.3-0.5-0.3-0.7-0.4c-0.3-0.5-0.5-1-0.8-1.5c-0.2-0.2-0.5-0.1-0.7-0.2c0,0,0-0.1,0-0.2
	c-0.3,0-0.7,0.1-1,0.1c0-0.1,0-0.2,0-0.2c-0.3,0-0.7,0.1-1,0.1c0-0.1,0-0.2,0-0.2c-0.3,0-0.6,0.1-0.9,0.1c0-0.1,0-0.2,0-0.2
	c-0.3,0-0.6,0.1-0.9,0.1c0-0.1,0-0.2,0-0.2c-0.2,0-0.4-0.1-0.7-0.1c-0.3,0-0.6,0-1,0c0-0.1,0-0.2,0-0.2c-0.1,0.1-0.3,0.1-0.4,0.2
	c-0.1,0.7-0.2,1.3-0.3,2c-0.2-0.1-0.4-0.1-0.6-0.2c-1,0-1.9-0.2-2.9-0.2c-0.9-0.1-1.7-0.5-2.6-0.4c0-0.1,0-0.1,0-0.2
	c-0.3,0-0.7,0.1-1,0.1c0-0.1,0-0.2,0-0.2c-0.3,0-0.7,0.1-1,0.1c0-0.1,0-0.2,0-0.2c-0.2,0-0.5,0.1-0.7,0.1c0,0,0-0.1-0.1-0.2
	c-0.2,0-0.4,0.1-0.6,0.1c0-0.1,0-0.2,0-0.2c-0.2,0-0.4,0.1-0.6,0.1c0-0.1,0-0.1,0-0.2c-0.8,0.2-1.4-0.4-2.1-0.7
	c-1.4-0.9-2.8-1.6-4.2-2.5c-0.4-0.3-0.9-0.5-1.4-0.8c-1.7-1-3.3-2.1-5-3c-0.4-0.3-0.9-0.4-1.2-0.8c0.2-0.2,0.4-0.4,0.5-0.6
	c-0.3-0.3-0.7-0.2-1.1-0.2c0,0,0-0.1,0-0.2c-0.3,0-0.6,0.1-0.9,0.1c0-0.1,0-0.2,0-0.2c-2.3,0.1-4.5-0.4-6.8-0.7
	c-0.2-1.4,0.1-3.1-0.9-4.2c-0.6-0.7-1-1.7-1.9-1.8c-0.2-0.1-0.4-0.2-0.6-0.3c0-0.3,0.2-0.6,0.2-0.9c-0.4-0.5-1-0.5-1.6-0.7
	c-1.1-0.3-0.9-1.7-1.9-2.2c-0.7-0.2-1.3-0.5-1.8-0.9c-0.4-0.2-0.9-0.1-1.4-0.2c-0.3-0.2-0.4-0.5-0.6-0.7c0.1,0,0.2,0,0.3,0
	c0-0.2-0.1-0.3-0.1-0.5c0,0,0.1,0,0.2,0c0.1-0.8,0.4-1.5,0.1-2.3c-0.2-0.8-0.7-1.6-1.2-2.3c-0.5-0.6-0.4-1.4-0.6-2.1
	c-0.2-0.8-1.1-1.2-1.1-2.1c0.1,0,0.2,0,0.2,0c0-0.3-0.1-0.6,0.2-0.8c0.2-0.3,0.8-0.4,0.7-0.8c-0.1-0.7-1-0.8-1.3-1.4
	c-0.8-1.1-0.4-2.4,0-3.5c0.2,0,0.3,0,0.5,0c0,0.6-0.2,1.3,0.5,1.6c0.2-0.8-0.1-1.6-0.4-2.4c0.3,0,0.5-0.1,0.8-0.1
	c-0.2-0.2-0.4-0.4-0.6-0.6c-0.2,0.4-0.3,0.9-0.4,1.4c-0.5-0.2-0.9-0.6-1.2-1c-0.5-0.6,0-1.4-0.2-2.1c-0.3-0.8-0.8-1.7-1.3-2.4
	c-0.4-0.5-0.2-1.1-0.1-1.6c0.1-0.6,0.4-1.2,0.7-1.7c0.5-1.6-1.1-2.6-1.1-4.1c0-0.5,0.4-0.8,0.8-1.1c0.5-0.7,1.1-1.3,1.3-2.2
	c0.5-1.1,0.3-2.2,0.7-3.3c0-0.5-0.3-0.9-0.4-1.3c0.1,0,0.2,0,0.3,0c0-0.2-0.1-0.4-0.1-0.6c0.1,0,0.2,0,0.2,0c-0.1-1-0.1-2.1,0.6-2.8
	c1.3-1.8,2.4-3.8,3.1-5.9c0.5-1.2,0.8-2.5,1.6-3.6c0-0.1,0-0.2,0-0.3c0.1,0,0.1,0,0.2,0c0-0.1-0.1-0.3-0.1-0.4c0,0,0.1,0,0.1,0
	c0.1-0.9,0.5-1.7,0.8-2.5c0.3-0.1,0.6-0.1,0.9-0.1c0.1-0.2,0.1-0.3,0.1-0.5c-0.2,0.1-0.5,0.2-0.7,0.2c-0.2-0.2-0.3-0.3-0.5-0.5
	c0.1-0.3,0.2-0.5,0.3-0.8c0.2,0.1,0.3,0.1,0.5,0.2c0.1-0.2,0.2-0.4,0.3-0.6c-0.2-0.3-0.5-0.5-0.6-0.8c0.1-0.4,0.5-0.5,0.8-0.6
	c-0.8-0.8-0.7-2.1-0.6-3.2c0.2-0.7-0.2-1.4-0.3-2.1c0-0.5,0.2-1.1,0.3-1.6c1,0.6,1.5,1.6,2.6,2.1c0.9,0.4,1.8,0.5,2.8,0.7
	c0.3-0.4,0.5-0.7,0.8-1.1c-0.1,0.5-0.3,0.9-0.3,1.4c0.4,0.3,0.7,0.7,1,1.1c-0.1-0.6-0.4-1.3-0.3-1.9c0-0.6,0.3-1.2,0.2-1.8
	C-221.8,114-222.1,113.6-221.9,113.1z"/>
<path id="path6" stroke="#000000" stroke-width="9.375000e-02" d="M-139.2,172.2c0.1,0,0.1,0.2,0,0.2
	C-139.3,172.3-139.3,172.2-139.2,172.2z"/>
</svg>
