<?xml version="1.0" encoding="utf-8"?>
<!-- Generator: Adobe Illustrator 18.1.1, SVG Export Plug-In . SVG Version: 6.00 Build 0)  -->
<svg version="1.1" id="Layer_1" xmlns="http://www.w3.org/2000/svg" xmlns:xlink="http://www.w3.org/1999/xlink" x="0px" y="0px"
	 viewBox="0 0 38.1 71.4" enable-background="new 0 0 38.1 71.4" xml:space="preserve">
<path fill="#FFFFFF" d="M0.7,37.4l33.4,33.4c0.5,0.5,1,0.7,1.6,0.7c0.6,0,1.2-0.2,1.6-0.7l0,0c0.4-0.4,0.7-1,0.7-1.6V52.9
	c0-0.6-0.2-1.2-0.7-1.6L21.9,35.7l15.5-15.5c0.4-0.4,0.7-1,0.7-1.6V2.4c0-0.6-0.2-1.2-0.7-1.6l0,0c-0.4-0.4-1-0.7-1.6-0.7
	c-0.6,0-1.2,0.2-1.6,0.7L0.7,34.1C-0.2,35-0.2,36.4,0.7,37.4z"/>
</svg>
