<?xml version="1.0" encoding="utf-8"?>
<!-- Generator: Adobe Illustrator 18.1.1, SVG Export Plug-In . SVG Version: 6.00 Build 0)  -->
<svg version="1.1" id="Layer_1" xmlns="http://www.w3.org/2000/svg" xmlns:xlink="http://www.w3.org/1999/xlink" x="0px" y="0px"
	 viewBox="0 0 72.3 61.2" enable-background="new 0 0 72.3 61.2" xml:space="preserve">
<g>
	<path fill="#FFFFFF" d="M72.2,24.7c1.4-11.8-9.6-22.8-24.4-24.4c-9.1-1-17.6,1.7-23.1,6.6c1.2-0.1,2.5-0.2,3.7-0.2
		c7.4,0,14.5,2.2,20,6.1c5.8,4.2,9.4,10,10.2,16.5c0.7,5.8-1,11.6-4.7,16.6c7.6,5.7,14.6,4.2,13,3c-4.5-3.4-5.5-6.8-5.2-9.4
		C67.4,36.2,71.5,30.9,72.2,24.7z"/>
	<path fill="#FFFFFF" d="M54,29.8C52.7,19,41.6,11.2,28.4,11.2c-1.3,0-2.5,0.1-3.8,0.2C9.7,13.1-1.3,24,0.1,35.9
		c0.7,6.3,4.8,11.5,10.6,14.8c0.3,2.6-0.7,6-5.2,9.4c-0.7,0.5,0.3,1.2,2.3,1.2c3.1,0,8.7-1.5,14-7c1.3,0.2,2.7,0.2,4,0.2
		c1.2,0,2.5-0.1,3.8-0.2C44.5,52.6,55.4,41.7,54,29.8z"/>
</g>
</svg>
