<?xml version="1.0" encoding="utf-8"?>
<!-- Generator: Adobe Illustrator 18.1.1, SVG Export Plug-In . SVG Version: 6.00 Build 0)  -->
<svg version="1.1" id="Layer_1" xmlns="http://www.w3.org/2000/svg" xmlns:xlink="http://www.w3.org/1999/xlink" x="0px" y="0px"
	 viewBox="0 0 38.1 71.4" enable-background="new 0 0 38.1 71.4" xml:space="preserve">
<path fill="#FFFFFF" d="M37.4,34.1L4,0.7C3.5,0.2,3,0,2.4,0C1.8,0,1.2,0.2,0.7,0.7l0,0C0.2,1.2,0,1.7,0,2.4v16.2
	c0,0.6,0.2,1.2,0.7,1.6l15.5,15.5L0.7,51.2c-0.4,0.4-0.7,1-0.7,1.6v16.2c0,0.6,0.2,1.2,0.7,1.6l0,0c0.4,0.4,1,0.7,1.6,0.7
	c0.6,0,1.2-0.2,1.6-0.7l33.4-33.4C38.3,36.4,38.3,35,37.4,34.1z"/>
</svg>
