<?xml version="1.0" encoding="utf-8"?>
<!-- Generator: Adobe Illustrator 18.1.1, SVG Export Plug-In . SVG Version: 6.00 Build 0)  -->
<svg version="1.1" xmlns="http://www.w3.org/2000/svg" xmlns:xlink="http://www.w3.org/1999/xlink" x="0px" y="0px"
	 viewBox="0 0 1000 1000" enable-background="new 0 0 1000 1000" xml:space="preserve">
<g id="svg2" inkscape:version="0.48.2 r9819" sodipodi:docname="united states.svg" xmlns:sodipodi="http://sodipodi.sourceforge.net/DTD/sodipodi-0.dtd" xmlns:svg="http://www.w3.org/2000/svg" xmlns:inkscape="http://www.inkscape.org/namespaces/inkscape" xmlns:dc="http://purl.org/dc/elements/1.1/" xmlns:rdf="http://www.w3.org/1999/02/22-rdf-syntax-ns#" xmlns:cc="http://creativecommons.org/ns#">
	<path id="path4" fill="#EC7F4C" d="M150.4,214.8c6.6,1.9,13.2,4.7,19.8,5.6c9.9,2.8,20.2,5.6,30.6,8c10.4,2.8,20.7,5.2,31.1,7.5
		c10.8,2.4,21.7,5.2,32.5,6.6c6.1,1.4,12.2,2.8,18.4,3.8c8.9,2.4,17.9,2.4,26.8,4.2c10.4,2.8,21.7,2.8,32,5.2
		c20.7,1.9,41.4,5.6,62.6,6.6c8,1.4,16.5,1.9,24.9,1.9c10.4,0,20.2,2.4,30.6,2.4c23.5,0.5,47.5,0.9,71.1,0.9c0-2.8,0-5.6,0-8
		c1.9,0.5,4.2,0.5,5.2,1.9c0.9,3.8,0,8.5,2.8,11.3c3.8,0.9,7.5,1.4,11.3,2.4c0.5,0.9,0.5,1.4,0.9,2.4c3.3,0,5.2-2.8,8.5-2.8
		c5.6,1.4,10.4,7.1,16.5,5.2c0,0.5-0.5,0.9-0.5,1.4c3.8,0.9,6.1,4.7,10.4,3.8c2.4-1.4,4.7-2.8,7.1-4.2c0.9,0.9,1.4,3.3,3.3,3.3
		c2.8,0,5.6-0.5,8.5-0.9c0,0.5,0,1.4,0.5,1.9c2.8,0,5.6-0.5,8-0.5c-3.3,1.9-5.6,4.2-9.4,5.6c-4.7,1.4-8.9,3.8-11.8,7.1
		c-3.3,1.4-3.3,5.2-6.1,7.1c-3.3,2.4-6.6,5.6-9.9,8c1.9,1.4,4.2,2.8,6.6,1.4c2.4-0.9,4.2-1.9,6.6-2.8c1.9-0.9,3.3-2.8,5.6-3.3
		c0.5,0.5,0.9,0.9,1.4,1.9c-1.4,1.4-2.8,3.3-3.3,5.2c0.9,0,1.4,0.5,2.4,0.5c1.9-1.9,3.8,0.5,5.6,0.5c3.3-0.9,6.6-3.3,8.9-5.6
		c2.8-0.9,6.6-0.5,8.9-2.8c5.2-3.8,8.5-11.3,15.5-12.7c1.9-0.9,3.8-0.5,5.6,0.5c-1.4,0.9-3.3,1.4-4.7,1.9c-0.9,2.4-3.8,3.3-4.2,5.6
		c-0.9,2.4-1.4,4.2-1.9,6.6c1.9-1.4,3.3-3.3,5.2-4.7c0,0.5,0.5,0.9,0.5,0.9c1.9,0.5,4.2,0,6.1,1.4c1.9,1.9,3.3,4.2,5.2,6.1
		c1.9,0.5,4.2,0,6.1-0.9c0,0.5-0.5,0.9-0.5,1.4c1.4,0,2.8,0.5,4.2,0.5c2.8-1.4,4.7-3.8,7.5-5.2c3.3-1.4,6.6-0.9,9.9-1.9
		c2.4-0.9,4.2-2.4,6.1-3.3c0,2.4,0,4.7-0.5,6.6c4.7,0.9,9.4-1.4,13.6-2.8c0,1.4,0.5,4.7,0.5,6.6c0.9,1.9,2.4,3.8,3.3,5.6
		c-3.8,0.9-7.5-1.4-10.8,0.5c-0.9,0.5-1.9,0.9-3.3,0.5c-0.9,0-1.9,0-2.4,0c0-0.5,0-0.9,0-0.9c-0.9,0-1.4,0.5-2.4,0.5
		c0-0.5,0-0.9,0-0.9c-1.4,0-2.4,0.5-3.8,0.5c-0.9,0.9-1.4,1.9-2.4,2.4c-3.3,0-6.6,0.9-9.9,1.4c0,1.4,0.5,3.3-0.5,4.2
		c-1.4,0.5-2.4-0.5-3.8-0.9c-1.9,0.5-3.3,1.4-4.7,1.9c-0.5-0.9-0.9-1.9-1.4-2.4c-1.4,6.1-4.7,11.8-7.1,17.4
		c-2.8,3.3-4.2,7.5-4.7,11.8c4.7-3.3,6.6-8.9,10.4-12.7c1.4-1.9,2.4-4.2,4.2-5.6c0,2.8-0.9,5.2-2.4,7.5c-2.4,4.7-3.8,9.9-4.7,15.1
		c0.5,0.9,0.5,1.4,0.9,2.4c-2.8,0.5-2.8,3.8-2.4,6.1c0.5,4.2-1.4,8-1.9,12.2c0.5,3.8,1.4,7.5,1.4,11.3h0.5c0,0.5,0,0.9-0.5,1.9
		c0.5,0,0.9,0,0.9,0c0.5,3.8-1.9,8,0.9,10.8c2.4,2.8,2.8,6.1,4.2,9.4c2.4,0.5,5.2,1.4,7.5,0.5c2.8-1.4,5.2-3.3,7.1-5.6
		c0-2.8,0.9-5.2,2.4-7.5c1.9-3.3,1.4-7.1,1.4-10.8c-0.5-3.3-0.5-6.6-2.4-8.9c-1.9-2.8-2.8-6.6-4.2-9.9c1.4-3.3,1.4-7.1,0.5-10.4
		c0.5-0.9,1.4-1.9,1.9-2.8c0,0,0,0,0-0.5c0.9-2.8,0.9-6.1-0.5-8.5c1.4-0.5,2.8-1.9,2.8-3.8c0-2.4,2.4-3.3,4.2-4.2
		c0.5-1.4,0.9-2.8,1.4-4.7c0.5,0,0.9,0.5,1.4,0.5c-0.9,2.8-1.4,5.6-0.9,8.5c1.4-1.4,4.2-2.4,2.8-5.2c0.5-1.9-0.5-4.2,0.5-6.1
		c1.4-1.9,4.2-1.9,6.1-1.9c-1.9-0.9-4.7-1.9-4.2-4.7c1.4-1.4,2.8-3.8,5.2-3.8c1.4,0,2.8,0.9,3.8,1.9c1.4,0,2.8-0.5,4.2-0.5
		c2.8,3.8,7.5,4.7,12.2,5.2c1.9,1.4,2.8,4.2,4.2,6.1c-0.5,0-0.9,0-1.4,0c-0.5-0.5-1.4-0.9-1.9-1.4c0,0.9,0,1.9,0,2.4
		c4.7,2.4,4.7,8,3.8,12.7c-1.9,2.8-2.8,5.6-4.2,8.5c-0.9,0-1.9,0-2.8,0c0,2.8,0,5.2,1.4,7.5c0.9,0,2.4,0,3.3-0.5
		c2.8-2.4,2.8-7.1,6.6-8.9c1.9-0.9,3.8-2.8,6.1-1.4c1.9,2.4,3.3,5.2,3.3,8h0.5c0,0.9-0.5,1.4-0.5,2.4c0.5,0,0.9,0,0.9,0
		c0,0.9-0.5,1.4-0.5,2.4c0,0,0.5,0,0.9,0c0,0.5,0,1.4,0,1.9c2.8,4.2,3.3,9.4,3.3,14.1c-0.9,0.5-1.4,1.4-2.4,1.4
		c-0.9-0.9-1.4-1.9-1.9-2.4c-0.9,2.8-1.4,5.2-1.9,8c-0.9,0-1.4,0-2.4,0c0,1.9,0,3.8,0,6.1c-2.8,1.4-3.3,5.2-3.3,8
		c3.3,0.5,6.6,1.4,9.9,2.4c2.4,0.5,3.8,2.4,6.1,2.4c2.8-0.9,5.2-1.9,7.5-2.8c5.2-1.9,8-6.1,12.2-8.9c4.7-4.2,11.3-6.1,16-10.8
		c4.7-4.2,10.4-8,12.7-13.6c0.9,0,1.4-0.5,2.4-0.5c-0.5-1.9-1.4-4.7-3.8-5.2c-0.5-1.9-0.9-4.2-1.9-6.1c4.2-1.4,8.5-3.8,13.2-4.2
		c3.8-0.5,7.1,0,10.8,0.9c3.3-3.3,9.9-1.4,12.2-6.1c1.9-1.9,3.8-2.8,5.6-4.7c0.5-1.9-0.9-4.2-0.9-6.1c0.5,0,0.9-0.5,1.4-0.5
		c-1.4-1.9-3.3-3.3-5.6-3.8c1.9-4.7,5.6-8,8.5-11.8c2.8-4.7,5.2-9.9,10.8-11.8s11.8-1.9,17.4-4.2c7.5-2.8,15.1-4.7,23.1-6.1
		c1.9-0.5,4.2-0.5,6.1-1.4c1.4-2.4,1.9-5.2,2.4-7.5c0.9,0.5,1.9,0.9,2.8,1.4c0.5-0.9,0.5-1.9,0.9-2.8c0.9,0.5,1.9,0.9,2.8,1.4
		c0.5-2.4,1.4-5.2,1.9-7.5c0.5-2.8,3.3-4.2,3.8-7.1c-1.4-3.8-2.8-8-0.9-11.3c1.4-2.8-0.5-6.1,0.9-9.4c1.4-2.8,2.4-5.2,3.3-8
		c0,0,0,0,0.5,0c0.5-2.8,1.9-5.6,2.8-8.5c2.8,0.9,3.3,4.2,6.1,5.2c1.4-2.4,3.3-4.2,5.6-5.2c0-0.5,0-0.9,0-1.4
		c3.3,0.9,6.1,2.8,9.4,4.2c0,0.5,0,0.9,0,1.9c0.5,0,0.5,0,0.9,0c0,0.5-0.5,1.4-0.5,1.9c0.5,0,0.9,0,0.9,0c0,0.9-0.5,1.4-0.5,2.4
		c0.5,0,0.9,0,0.9,0c0,0.5-0.5,1.4-0.5,1.9c0.5,0,0.9,0,0.9,0c0,0.5-0.5,1.4-0.5,1.9c0.5,0,0.9,0,0.9,0c0,0.5-0.5,1.4-0.5,1.9
		c0.5,0,0.9,0,0.9,0c0,0.9-0.5,1.4-0.5,2.4c0.5,0,0.9,0,0.9,0c0,0.5-0.5,1.4-0.5,1.9c0.5,0,0.9,0,0.9,0c0,0.5-0.5,1.4-0.5,1.9h0.5
		c0.9,2.4,1.4,5.2,2.4,7.5c0,0.9,0.5,1.9,0.5,2.8c1.9,0.5,4.2,0.5,6.1,0.9c0.9,3.8,1.4,8,5.2,9.4c-0.5-0.9-0.5-2.4-0.9-3.3
		c3.3,1.4,6.1,3.8,7.1,7.1c0,2.8-2.4,5.2-4.7,6.1c-3.8,1.9-5.6,5.6-8.9,8.5c0-0.9,0-1.4-0.5-2.4c-2.8-0.9-4.2,2.4-6.1,3.3
		c0,0.9,0,1.9,0,2.4c-0.9,0-2.4,0-3.3-0.5c0,0.5,0,0.9,0,1.4c-0.5-1.9-1.9-3.3-3.3-3.8c1.4,2.8,1.4,6.1,0.5,9.4c0.5,0,0.9,0,1.4,0.5
		c-2.4,2.8-5.2,4.7-8,7.1c-0.9,0.5-1.9,1.4-2.8,1.9c-1.4,0.9-2.4-0.5-3.3-0.9c-0.9,1.4-2.4,2.8-1.9,4.7c0.5,0.9,0,1.9-0.5,2.8
		c-0.9,4.7-1.9,8.9-2.8,13.6c-0.9,2.4,0.5,4.2,1.9,6.1c-0.5,2.4-2.8,5.2-1.4,7.5c0.9,1.9,3.3,0.5,4.7,1.4c1.9,2.8,3.8,5.6,5.2,8.5
		c1.4,0,2.8,0,4.7,0c1.4-0.9,2.4-2.4,3.8-3.3c0.5,0.9,0.9,1.9,1.4,3.3c-2.8,0.5-5.6,1.9-8.5,2.4c-0.9,0.9-1.4,2.4-2.4,3.3
		c-0.5-1.4-0.9-2.8-2.4-3.8c-0.5,0.5-0.5,1.4-0.5,1.9c-0.5,0-0.9,0-1.9,0c0,0.9,0.5,1.9,0.5,2.8c-1.9,1.4-4.2,2.8-6.6,2.8
		c-0.5,2.8-3.8,3.3-5.6,4.7c-3.3,2.4-7.1,2.4-10.8,3.8c-1.9,0.9-3.8,0.9-6.1,1.4c-1.9,0.5-2.4,2.4-3.3,3.3c-2.4,1.4-4.2,3.3-6.6,4.2
		c-0.5,1.9-0.9,3.3-0.9,4.7c1.4-1.4,2.8-3.3,4.2-4.2c1.9,0,4.2,0.9,6.1-0.5c3.3-1.9,8-2.4,9.4-6.6c1.4,0,2.8,0.5,4.2,0.5
		c-1.9,4.7-6.1,6.1-9.4,8.9c-2.4,1.9-5.2,3.3-8,4.7c-4.2,1.4-8.9,1.9-11.3,5.6c1.4,0,2.8-0.5,4.2-0.5c1.4,6.6,2.4,13.2-0.5,19.8
		c-1.4,4.2-4.7,7.5-5.2,11.8c0,1.9-1.4,3.3-3.3,4.2c0-1.9,0-3.3,0-5.2c-2.8-0.5-5.6-0.9-7.5-2.8c-1.4-1.4-2.8-3.3-4.7-4.7
		c0,0.9,0,1.9-0.5,2.8c0.9,1.4,2.4,2.8,4.2,3.3c1.4,2.4,2.4,5.2,3.8,7.5c1.4,0.9,2.8,1.4,4.2,2.4c0.5,2.8,2.4,5.2,2.4,8
		c0.5,5.6-2.4,9.9-5.2,14.6c-0.5,5.2-0.5,10.4-2.8,15.1c-1.4,0-2.4-1.4-3.3-2.8c-0.5-4.7,1.4-9.4,2.4-13.6c-0.9-3.3-3.3-5.6-5.6-8
		c0,0.5,0,0.9-0.5,1.4c-1.4,0-2.8,0-4.2,0c-0.9-2.4-1.9-4.2-2.4-6.6c0.9-0.5,1.9-0.5,2.8-0.9c-1.4-0.9-2.8-1.4-3.8-2.4
		c0.5-1.9,1.9-3.3,1.9-4.7c-0.5-1.4-1.9-2.4-2.8-3.8c0.9-1.4,0.9-3.3,1.4-5.2c-0.5,0-0.9,0-0.9,0.5c-0.9,1.9-2.4,3.3-2.8,5.2
		c0.5,1.4,1.4,2.8,0.9,4.7c-1.9,5.2,2.8,9.4,3.8,14.1c0.5,1.4-0.5,2.4-1.4,3.3c0-0.5-0.5-0.9-0.5-1.4c-0.9,0-1.9,0.5-2.8,0.5
		c0-0.5,0-0.9,0-1.4c-1.9,0.5-3.8,0.9-5.6,1.4c3.3,0.9,6.6,0,9.4,1.9c1.9,0.9,3.8,1.9,5.2,3.3c0,1.9-0.5,3.3-0.9,5.2
		c0.5,0,0.9,0,1.4,0c0.5,2.4,0.9,4.7,1.4,7.1c-0.9-0.9-2.4-1.4-3.3-2.4c1.4,2.8,3.3,5.6,5.2,8.5c-0.9,0.5-2.4,0.5-3.3,0.9
		c-0.5-2.4-2.8-3.3-4.7-4.2c0.9,3.3,3.8,5.6,6.6,7.1c0-0.5,0-1.4,0.5-1.9c1.9-0.5,3.8-1.4,5.2-1.9c0.5,1.9,0.9,3.8,2.4,5.2
		c2.4,3.3,4.2,7.5,6.1,11.3c-0.5,0.5-0.9,0.9-1.4,1.4c-1.4-0.9-3.3-1.4-5.2-2.4c-2.8,3.3-8,3.3-9.4,7.1c1.9,0,3.3-0.9,4.7-2.4
		c0,0.5-0.5,1.4-0.5,1.9c2.4-2.4,6.1-2.4,9.4-3.3c0.9,0.5,1.4,1.4,1.9,2.4c1.9,1.4,1.4,3.3,1.9,5.6c-1.4,0.5-2.4,0.5-3.3,1.4
		c-0.5,1.9-0.5,3.8-1.4,5.2c-0.9,0.5-2.4,0.5-3.3,0.9c-1.4,0-2.4,0.5-3.8,0.5c0,0.5,0,0.9,0,0.9c0.5,0,0.9,0,1.4,0
		c-0.5,1.9-1.4,3.8-1.9,5.6c2.4,0.5,4.7,1.4,6.6,1.9c-0.9,2.8-1.9,6.1-5.2,6.6c0-0.5,0-1.4,0-1.4c-2.8,1.4-6.6,1.4-8.9,3.8
		c-2.4,3.3-6.1,4.7-8,8c-1.4,2.4-1.4,5.6-2.8,8.5c-1.4,1.9-4.2,1.4-6.1,2.4c-2.8,1.4-6.1,2.4-8.5,4.7c-2.4,2.8-3.3,6.6-3.3,10.4
		c0.5,3.8-2.8,7.1-6.1,7.1c-0.5,2.8-2.8,4.7-4.7,6.6c-2.8,3.3-6.1,5.6-9.4,8c0.5,0,0.9,0,1.4,0c0,0.5,0,0.9,0,1.4
		c-2.4,1.9-5.2,3.8-6.1,7.1c-0.9,3.3-3.3,5.6-3.3,8.5c-0.9,6.1-4.2,11.8-3.3,17.9c0.5,7.5,3.8,14.1,6.1,20.7
		c1.4,3.8,4.2,7.1,6.1,10.8c3.8,5.6,9.4,9.9,12.7,15.5c-0.5,0-1.4,0-1.9,0.5c0.5,2.8,0.9,6.1,2.4,8.5c3.3,4.7,6.6,9.9,9.4,15.1
		c7.1,8.5,5.2,20.2,6.1,31.1c-0.9-0.5-1.4-0.5-1.9-0.9c-0.5,2.4-2.4,6.1,0,8c-0.9,1.9-2.4,3.3-4.2,4.7s-4.7,0.9-7.1,1.4
		c0,0.5-0.5,0.9-0.5,1.4c-0.9,0-1.4,0-1.9,0c0,0.5-0.5,0.9-0.5,1.4c-2.8-1.9-1.9-5.6-3.3-8.5c-1.9-2.4-3.8-4.7-6.1-7.1
		c-1.9,0-3.3,0.9-5.2,1.4c-1.9-2.4-2.4-4.7-3.3-7.5c-0.5-2.4-2.8-3.3-4.2-5.2c-1.9-2.4-1.9-5.6-2.4-8.5c-0.9-0.5-1.4-0.5-2.4-0.9
		c0,1.9,0,3.8,0,5.2c-2.4-1.4-3.8-3.3-4.7-5.2c-1.9-3.3-5.2-6.1-7.1-8.9c2.4-2.8,4.2-5.6,4.7-9.4c-2.4,0-4.2-0.5-6.6-0.9
		c0.5,0.5,0.5,1.4,0.9,1.9c0.9,0,1.4,0,2.4,0c-0.5,1.4-0.5,2.8-0.9,4.2c-3.8-2.4-3.3-7.5-4.2-11.3h0.5c0.9-4.7,1.4-10.4-1.4-14.6
		c-0.9-1.4-1.4-2.8-1.9-4.2c-0.5,0-0.9,0-1.9,0.5c0-0.5,0-0.5,0-0.9c-0.9,0-1.4,0-2.4,0.5v-0.5c-3.8,0-4.7-3.8-8-5.2
		c-0.5-3.3-3.8-4.2-5.6-6.6c-3.3-3.3-8.5-4.7-12.7-3.3c-0.5,1.4-0.5,2.8-2.4,3.3c-2.8,0.9-4.7,2.8-6.1,5.2c-2.8,0.5-5.6,1.4-8.5,1.4
		c0,0.5,0,0.9,0,0.9c-0.9-1.9-0.9-3.8-2.4-4.7c-4.7-2.8-9.4-5.6-15.1-7.1v-0.5c-0.5,0-1.4,0-1.9,0c-5.2-0.9-10.4,0.9-15.1,1.9
		c-5.2,1.4-9.9,4.2-15.5,4.2c1.4-0.5,2.4-0.9,3.8-1.4c-1.4-3.3-2.8-6.1-5.2-8.5c-0.5,2.8-0.9,5.6-2.8,7.5c-3.3,0.9-6.6,2.4-9.9,1.4
		c-1.4-0.5-3.3-1.4-4.7-0.5c-1.9,0.9-4.2,0.5-6.1,0.9c-0.9,1.4-1.4,3.3-3.3,4.2c-2.4,1.4-5.2,2.8-4.7,6.1c1.4,0,2.4,0.5,3.8,0.5
		c0.5-1.4,1.4-2.8,1.9-4.2c0.9,0.5,1.4,0.5,2.4,0.5c0,0.9,0.5,1.4,0.5,2.4c0.5,0,0.9,0,1.9,0c-0.9,0.9-1.4,2.4-2.4,3.3
		c-0.9,0.9-3.3,0.9-3.8,2.8c-1.4,1.9,0.9,3.8,2.8,4.7c3.8,0.9,8,1.4,10.4,4.2c-0.5,2.8-3.8,4.2-6.1,2.8c-1.9-3.8-6.1-3.3-9.4-4.7
		c0-0.9,0-2.4,0.5-3.3c-3.3,0-4.7,3.8-4.2,6.6c-0.9,0.5-1.4,1.4-1.9,1.9h-0.5c-0.5-0.9-0.9-1.9-1.4-2.8c-2.4,0-4.2,0.5-6.1,0.9
		c0,0.9-0.5,2.4-0.5,3.3c-4.7,0.5-8.9-2.4-13.2-4.2c0.9-0.9,1.9-1.9,2.8-2.8c-1.9-0.9-4.2-1.4-6.1-1.9c-0.5-1.4-0.9-2.8-0.9-4.2
		c-1.9-0.9-3.8-0.9-5.2,0.5c-1.4-3.3-5.2-1.4-6.1,1.4c1.4,0.5,2.4,0.9,3.8,0.9c-0.9,0.9-2.4,1.4-3.3,2.4c0-0.5,0-0.9,0-1.4
		c-3.3,0.9-7.1,1.4-9.9-0.9c-2.8-0.9-5.6-1.9-8-2.8c-3.3-0.9-7.1,0.5-10.4,0.5c-0.9,0.5-1.9,0.9-2.8,1.4c-2.8,0.9-6.1,1.4-8.9,2.8
		c-2.4,0.9-5.2,1.9-6.6,4.2c-0.9,1.4-2.8,2.4-4.2,3.3c-4.2,2.8-7.5,7.1-12.2,9.4c-5.6,3.3-11.8,5.2-16.5,9.4
		c-2.4,1.9-4.7,2.8-6.6,4.7c-0.5,0-0.5,0-0.9,0c0,0.5,0,0.9,0,1.4c-4.2,3.8-6.6,9.4-9.4,14.1c-1.4,2.4-1.9,5.6-2.4,8.5
		c0,2.4,0.9,5.2,0.9,7.5h0.5c0,0.5,0,1.4,0,1.9c1.4,2.4,1.4,5.2,1.9,7.5c1.9,1.9,0,5.6-2.8,4.7c-3.8-1.4-7.5-4.2-11.8-4.7
		c0,0.5,0,0.9,0,1.4c-3.3-0.9-6.1-3.3-9.4-4.7c-3.3-0.9-6.1-3.3-9.4-3.8c-2.4-0.5-2.4-3.8-3.3-5.6c-0.9-3.3-2.4-6.1-4.2-8.9
		c0.5,0,0.9,0,1.4,0c0-1.4,0-2.8,0-4.2c-0.9-0.5-1.4-0.5-2.4-0.9c0.5,0,0.9-0.5,0.9-0.5c0-1.9,1.4-4.2-0.5-5.6
		c-1.9-1.4-4.7-1.9-5.6-4.2c-1.4-2.4-2.4-5.2-4.2-7.5c-0.9-1.4-2.8-1.4-3.8-2.8c-1.9-6.1-4.2-11.8-7.1-17.9
		c-3.3-5.2-8-8.9-11.3-13.6c-4.2-1.4-8.5-1.9-12.7-2.4c-1.9-0.5-3.3-1.4-4.7-2.8c-0.5,0.5-0.9,0.9-0.9,1.9c-2.8,0.5-6.6,1.4-7.5,4.7
		c-1.9,4.7-4.2,8.9-8,12.2c-4.2-1.9-8-4.7-11.8-7.5c-5.2-2.4-9.9-6.1-12.2-11.3c-1.4-3.8-0.9-7.5-1.9-11.3c-0.9-3.3-2.8-6.6-5.2-9.4
		c-1.4-1.9-3.8-1.9-5.6-3.3c-3.8-3.3-6.6-7.5-9.4-11.8c-0.9-1.4-2.4-1.4-3.3-1.9c-1.4-2.4-2.4-4.7-3.8-7.1c-0.9-0.9-2.4-0.5-3.3-0.9
		c0,0,0-0.5,0-0.9c-1.4,0-3.3,0.5-4.7,0.5c0-0.5,0-0.9,0-0.9c-1.4,0-3.3,0.5-4.7,0.5c0-0.5,0-0.9,0-0.9c-1.4,0-2.8,0.5-4.2,0.5
		c0-0.5,0-0.9,0-0.9c-1.4,0-2.8,0.5-4.2,0.5c0-0.5,0-0.9,0-0.9c-0.9,0-1.9-0.5-3.3-0.5s-2.8,0-4.7,0c0-0.5,0-0.9,0-0.9
		c-0.5,0.5-1.4,0.5-1.9,0.9c-0.5,3.3-0.9,6.1-1.4,9.4c-0.9-0.5-1.9-0.5-2.8-0.9c-4.7,0-8.9-0.9-13.6-0.9c-4.2-0.5-8-2.4-12.2-1.9
		c0-0.5,0-0.5,0-0.9c-1.4,0-3.3,0.5-4.7,0.5c0-0.5,0-0.9,0-0.9c-1.4,0-3.3,0.5-4.7,0.5c0-0.5,0-0.9,0-0.9c-0.9,0-2.4,0.5-3.3,0.5
		c0,0,0-0.5-0.5-0.9c-0.9,0-1.9,0.5-2.8,0.5c0-0.5,0-0.9,0-0.9c-0.9,0-1.9,0.5-2.8,0.5c0-0.5,0-0.5,0-0.9c-3.8,0.9-6.6-1.9-9.9-3.3
		c-6.6-4.2-13.2-7.5-19.8-11.8c-1.9-1.4-4.2-2.4-6.6-3.8c-8-4.7-15.5-9.9-23.5-14.1c-1.9-1.4-4.2-1.9-5.6-3.8
		c0.9-0.9,1.9-1.9,2.4-2.8c-1.4-1.4-3.3-0.9-5.2-0.9c0,0,0-0.5,0-0.9c-1.4,0-2.8,0.5-4.2,0.5c0-0.5,0-0.9,0-0.9
		c-10.8,0.5-21.2-1.9-32-3.3c-0.9-6.6,0.5-14.6-4.2-19.8c-2.8-3.3-4.7-8-8.9-8.5c-0.9-0.5-1.9-0.9-2.8-1.4c0-1.4,0.9-2.8,0.9-4.2
		c-1.9-2.4-4.7-2.4-7.5-3.3c-5.2-1.4-4.2-8-8.9-10.4c-3.3-0.9-6.1-2.4-8.5-4.2c-1.9-0.9-4.2-0.5-6.6-0.9c-1.4-0.9-1.9-2.4-2.8-3.3
		c0.5,0,0.9,0,1.4,0c0-0.9-0.5-1.4-0.5-2.4c0,0,0.5,0,0.9,0c0.5-3.8,1.9-7.1,0.5-10.8c-0.9-3.8-3.3-7.5-5.6-10.8
		c-2.4-2.8-1.9-6.6-2.8-9.9c-0.9-3.8-5.2-5.6-5.2-9.9c0.5,0,0.9,0,0.9,0c0-1.4-0.5-2.8,0.9-3.8c0.9-1.4,3.8-1.9,3.3-3.8
		c-0.5-3.3-4.7-3.8-6.1-6.6c-3.8-5.2-1.9-11.3,0-16.5c0.9,0,1.4,0,2.4,0c0,2.8-0.9,6.1,2.4,7.5c0.9-3.8-0.5-7.5-1.9-11.3
		c1.4,0,2.4-0.5,3.8-0.5c-0.9-0.9-1.9-1.9-2.8-2.8c-0.9,1.9-1.4,4.2-1.9,6.6c-2.4-0.9-4.2-2.8-5.6-4.7c-2.4-2.8,0-6.6-0.9-9.9
		c-1.4-3.8-3.8-8-6.1-11.3c-1.9-2.4-0.9-5.2-0.5-7.5c0.5-2.8,1.9-5.6,3.3-8c2.4-7.5-5.2-12.2-5.2-19.3c0-2.4,1.9-3.8,3.8-5.2
		c2.4-3.3,5.2-6.1,6.1-10.4c2.4-5.2,1.4-10.4,3.3-15.5c0-2.4-1.4-4.2-1.9-6.1c0.5,0,0.9,0,1.4,0c0-0.9-0.5-1.9-0.5-2.8
		c0.5,0,0.9,0,0.9,0c-0.5-4.7-0.5-9.9,2.8-13.2c6.1-8.5,11.3-17.9,14.6-27.8c2.4-5.6,3.8-11.8,7.5-16.9c0-0.5,0-0.9,0-1.4
		c0.5,0,0.5,0,0.9,0c0-0.5-0.5-1.4-0.5-1.9h0.5c0.5-4.2,2.4-8,3.8-11.8c1.4-0.5,2.8-0.5,4.2-0.5c0.5-0.9,0.5-1.4,0.5-2.4
		c-0.9,0.5-2.4,0.9-3.3,0.9c-0.9-0.9-1.4-1.4-2.4-2.4c0.5-1.4,0.9-2.4,1.4-3.8c0.9,0.5,1.4,0.5,2.4,0.9c0.5-0.9,0.9-1.9,1.4-2.8
		c-0.9-1.4-2.4-2.4-2.8-3.8c0.5-1.9,2.4-2.4,3.8-2.8c-3.8-3.8-3.3-9.9-2.8-15.1c0.9-3.3-0.9-6.6-1.4-9.9c0-2.4,0.9-5.2,1.4-7.5
		c4.7,2.8,7.1,7.5,12.2,9.9c4.2,1.9,8.5,2.4,13.2,3.3c1.4-1.9,2.4-3.3,3.8-5.2c-0.5,2.4-1.4,4.2-1.4,6.6c1.9,1.4,3.3,3.3,4.7,5.2
		c-0.5-2.8-1.9-6.1-1.4-8.9c0-2.8,1.4-5.6,0.9-8.5C150.9,219,149.4,217.1,150.4,214.8z"/>
</g>
<g id="Layer_2">
	<g id="T2NByZ.tif" display="none" opacity="0.44">
		
			<image display="inline" overflow="visible" enable-background="new    " width="1281" height="891" id="Layer_0_2_" xlink:href="C3CCF7A55F7EBD34.png"  transform="matrix(0.8052 0 0 0.8052 -17.9753 117.1092)">
		</image>
	</g>
	<circle fill="#FFFFFF" cx="292.8" cy="291.8" r="8"/>
	<circle fill="#FFFFFF" cx="176.1" cy="311.2" r="7.9"/>
	<circle fill="#FFFFFF" cx="184.4" cy="286.5" r="7.9"/>
	<circle fill="#FFFFFF" cx="165" cy="247" r="7.9"/>
	<circle fill="#FFFFFF" cx="141.4" cy="268.5" r="7.9"/>
	<circle fill="#FFFFFF" cx="143.9" cy="319.5" r="7.9"/>
	<circle fill="#FFFFFF" cx="176.1" cy="351.8" r="7.9"/>
	<circle fill="#FFFFFF" cx="111.6" cy="356.5" r="7.9"/>
	<circle fill="#FFFFFF" cx="135.9" cy="400.8" r="7.9"/>
	<circle fill="#FFFFFF" cx="219.9" cy="384.5" r="7.9"/>
	<circle fill="#FFFFFF" cx="128.2" cy="433.1" r="7.9"/>
	<circle fill="#FFFFFF" cx="111.9" cy="416.8" r="7.9"/>
	<circle fill="#FFFFFF" cx="192.2" cy="417.1" r="7.9"/>
	<circle fill="#FFFFFF" cx="257.5" cy="381.4" r="7.9"/>
	<circle fill="#FFFFFF" cx="203.9" cy="457.8" r="7.9"/>
	<circle fill="#FFFFFF" cx="244.2" cy="416.8" r="7.9"/>
	<circle fill="#FFFFFF" cx="305.9" cy="400.8" r="7.9"/>
	<circle fill="#FFFFFF" cx="265.5" cy="462.1" r="7.9"/>
	<circle fill="#FFFFFF" cx="216.5" cy="481.1" r="7.9"/>
	<circle fill="#FFFFFF" cx="163.2" cy="498.1" r="7.9"/>
	<circle fill="#FFFFFF" cx="122.9" cy="462.1" r="7.9"/>
	<circle fill="#FFFFFF" cx="168.5" cy="470.1" r="7.9"/>
	<circle fill="#FFFFFF" cx="135.9" cy="481.8" r="7.9"/>
	<circle fill="#FFFFFF" cx="297.9" cy="469.8" r="7.9"/>
	<circle fill="#FFFFFF" cx="257.9" cy="521.8" r="7.9"/>
	<circle fill="#FFFFFF" cx="203.9" cy="513.8" r="7.9"/>
	<circle fill="#FFFFFF" cx="155" cy="530.4" r="7.9"/>
	<circle fill="#FFFFFF" cx="192.5" cy="538.1" r="7.9"/>
	<circle fill="#FFFFFF" cx="265.2" cy="594.4" r="7.9"/>
	<circle fill="#FFFFFF" cx="370.5" cy="623.8" r="7.9"/>
	<circle fill="#FFFFFF" cx="337.7" cy="591.7" r="7.9"/>
	<circle fill="#FFFFFF" cx="419.3" cy="522" r="7.9"/>
	<circle fill="#FFFFFF" cx="346.2" cy="421.8" r="7.9"/>
	<circle fill="#FFFFFF" cx="386.7" cy="400.2" r="7.9"/>
	<circle fill="#FFFFFF" cx="338" cy="335.8" r="7.9"/>
	<circle fill="#FFFFFF" cx="379" cy="291.8" r="7.9"/>
	<circle fill="#FFFFFF" cx="427.2" cy="554.1" r="7.9"/>
	<circle fill="#FFFFFF" cx="479.2" cy="562.4" r="7.9"/>
	<circle display="none" fill="#FFFFFF" cx="467.9" cy="623.4" r="7.9"/>
	<circle display="none" fill="#FFFFFF" cx="500.2" cy="648.4" r="7.9"/>
	<circle display="none" fill="#FFFFFF" cx="511.5" cy="671.4" r="7.9"/>
	<circle fill="#FFFFFF" cx="475.5" cy="697.1" r="7.9"/>
	<circle fill="#FFFFFF" cx="516.2" cy="594.8" r="7.9"/>
	<circle fill="#FFFFFF" cx="548.9" cy="562.8" r="7.9"/>
	<circle fill="#FFFFFF" cx="589.5" cy="602.8" r="7.9"/>
	<circle fill="#FFFFFF" cx="499.9" cy="502.4" r="7.9"/>
	<circle fill="#FFFFFF" cx="459.5" cy="473.1" r="7.9"/>
	<circle fill="#FFFFFF" cx="527.9" cy="481.4" r="7.9"/>
	<circle fill="#FFFFFF" cx="552.2" cy="521.8" r="7.9"/>
	<circle fill="#FFFFFF" cx="632.9" cy="543.1" r="7.9"/>
	<circle fill="#FFFFFF" cx="665.2" cy="607.8" r="7.9"/>
	<circle fill="#FFFFFF" cx="629.5" cy="623.8" r="7.9"/>
	<circle fill="#FFFFFF" cx="754.5" cy="635.4" r="7.9"/>
	<circle fill="#FFFFFF" cx="799.5" cy="707.9" r="7.9"/>
	<circle fill="#FFFFFF" cx="770.5" cy="567.4" r="7.9"/>
	<circle fill="#FFFFFF" cx="794.2" cy="554.4" r="7.9"/>
	<circle fill="#FFFFFF" cx="791.5" cy="513.4" r="7.9"/>
	<circle fill="#FFFFFF" cx="831.9" cy="518.8" r="7.9"/>
	<circle fill="#FFFFFF" cx="823.9" cy="494.4" r="7.9"/>
	<circle fill="#FFFFFF" cx="810.9" cy="465.4" r="7.9"/>
	<circle fill="#FFFFFF" cx="762.2" cy="457.1" r="7.9"/>
	<circle fill="#FFFFFF" cx="754.2" cy="421.1" r="7.9"/>
	<circle fill="#FFFFFF" cx="832.2" cy="416.4" r="7.9"/>
	<circle fill="#FFFFFF" cx="851.5" cy="400.4" r="7.9"/>
	<circle fill="#FFFFFF" cx="835.2" cy="365.1" r="7.9"/>
	<circle fill="#FFFFFF" cx="708.2" cy="386.1" r="7.9"/>
	<circle fill="#FFFFFF" cx="673.5" cy="433.4" r="7.9"/>
	<circle fill="#FFFFFF" cx="639.9" cy="440.4" r="7.9"/>
	<circle fill="#FFFFFF" cx="605.2" cy="417.1" r="7.9"/>
	<circle fill="#FFFFFF" cx="629.5" cy="400.8" r="7.9"/>
	<circle fill="#FFFFFF" cx="608.2" cy="392.1" r="7.9"/>
	<circle fill="#FFFFFF" cx="641.1" cy="461.5" r="7.9"/>
	<circle fill="#FFFFFF" cx="559.9" cy="424.8" r="7.9"/>
	<circle fill="#FFFFFF" cx="551.9" cy="397.1" r="7.9"/>
	<circle fill="#FFFFFF" cx="597.2" cy="372.4" r="7.9"/>
	<circle fill="#FFFFFF" cx="621.5" cy="359.4" r="7.9"/>
	<circle fill="#FFFFFF" cx="611.5" cy="332.4" r="7.9"/>
	<circle fill="#FFFFFF" cx="578.9" cy="339.8" r="7.9"/>
	<circle fill="#FFFFFF" cx="427.2" cy="311.4" r="7.9"/>
	<circle fill="#FFFFFF" cx="435.2" cy="348.8" r="7.9"/>
	<circle fill="#FFFFFF" cx="495.2" cy="311.4" r="7.9"/>
	<circle fill="#FFFFFF" cx="487.5" cy="380.8" r="7.9"/>
	<circle fill="#FFFFFF" cx="479.2" cy="408.4" r="7.9"/>
	<circle fill="#FFFFFF" cx="507.9" cy="440.4" r="7.9"/>
	<circle fill="#FFFFFF" cx="516.5" cy="408.8" r="7.9"/>
	<circle fill="#FFFFFF" cx="503.5" cy="351.8" r="7.9"/>
	<circle fill="#FFFFFF" cx="648.9" cy="521.8" r="7.9"/>
	<circle fill="#FFFFFF" cx="689.5" cy="510.4" r="7.9"/>
	<circle fill="#FFFFFF" cx="608.2" cy="489.8" r="7.9"/>
	<circle fill="#FFFFFF" cx="892.2" cy="319.1" r="7.9"/>
	<polygon fill="#FFFFFF" points="503.4,641.8 533.5,621.9 496.3,621.9 485.7,583.8 475.2,621.9 437.8,621.9 468.1,642 456.8,679.5 
		485.8,654.8 516.2,679.5 	"/>
	<circle fill="#FFFFFF" cx="695.5" cy="468.4" r="7.9"/>
	<circle fill="#FFFFFF" cx="731.5" cy="572.4" r="7.9"/>
	<circle fill="#FFFFFF" cx="684.5" cy="564.4" r="7.9"/>
	<circle fill="#FFFFFF" cx="748.5" cy="522.4" r="7.9"/>
</g>
</svg>
