<?xml version="1.0" encoding="utf-8"?>
<!-- Generator: Adobe Illustrator 18.1.1, SVG Export Plug-In . SVG Version: 6.00 Build 0)  -->
<svg version="1.1" id="Layer_1" xmlns="http://www.w3.org/2000/svg" xmlns:xlink="http://www.w3.org/1999/xlink" x="0px" y="0px"
	 viewBox="0.5 251.9 787.3 110.7" enable-background="new 0.5 251.9 787.3 110.7" xml:space="preserve">
<g>
	<g>
		<path fill="#262F35" d="M1.8,256.2c0,0,61.6-7.2,76.5,16.3c14.5,23.5,1.8,41.7-21.7,75.6c0,0-4.5,5.9-3.6,9.5
			c1.4,3.6,1.4,5.4,4.5,4.1c0,0,18.1-13.1,29.4-48S92.8,238.5,1.8,256.2z M75.6,288.8L62,289.2L24.5,301c0-1.4-0.9-2.3-1.8-2.7
			l9.1-26.3v-13.1l-5.9,10.9l-5.4,28.1c-2.7,0-4.5,2.3-4.5,4.5c0,2.3,2.3,4.5,4.5,4.5c2.7,0,4.5-2.3,4.5-4.5l38-5.9L75.6,288.8z"/>
	</g>
</g>
<g>
	<g>
		<path fill="#2FBDEB" d="M0.5,256.6c0,0,61.6-7.2,76.5,16.3c14.5,23.5,1.8,41.7-21.7,75.6c0,0-4.5,5.9-3.6,9.5
			c1.4,3.6,1.4,5.4,4.5,4.1c0,0,18.1-13.1,29.4-48C96.9,278.8,91.5,239,0.5,256.6z M74.3,288.8l-13.6,0.5L23.1,301
			c-0.5-0.9-1.4-1.8-2.3-2.7l9.5-25.8v-13.6l-5.9,11.3L19,298.3c-2.7,0-4.5,2.3-4.5,4.5c0,2.3,2.3,4.5,4.5,4.5
			c2.7,0,4.5-2.3,4.5-4.5l38-5.9L74.3,288.8z"/>
	</g>
</g>
<g enable-background="new    ">
	<path fill="#F2F2F2" d="M143.6,308l-17.7-46.3h-0.3c0.3,3.7,0.5,8,0.5,13.1V308h-5.6v-52.2h9.1l16.5,43.1h0.3l16.7-43.1h9.1V308
		h-6.1v-33.6c0-3.9,0.2-8,0.5-12.6h-0.3L148.5,308H143.6z"/>
	<path fill="#F2F2F2" d="M202.2,308.7c-5.8,0-10.3-1.8-13.7-5.3c-3.3-3.5-5-8.4-5-14.7c0-6.3,1.6-11.3,4.7-15s7.3-5.6,12.5-5.6
		c4.9,0,8.8,1.6,11.6,4.8c2.9,3.2,4.3,7.5,4.3,12.8v3.7h-27c0.1,4.6,1.3,8.1,3.5,10.5c2.2,2.4,5.3,3.6,9.3,3.6
		c4.2,0,8.4-0.9,12.5-2.6v5.3c-2.1,0.9-4.1,1.6-5.9,1.9S204.8,308.7,202.2,308.7z M200.6,273.1c-3.1,0-5.6,1-7.5,3.1
		c-1.9,2-3,4.9-3.3,8.5h20.5c0-3.7-0.8-6.6-2.5-8.6C206,274.1,203.7,273.1,200.6,273.1z"/>
	<path fill="#F2F2F2" d="M243.2,308.7c-5.8,0-10.3-1.8-13.7-5.3c-3.3-3.5-5-8.4-5-14.7c0-6.3,1.6-11.3,4.7-15s7.3-5.6,12.5-5.6
		c4.9,0,8.8,1.6,11.6,4.8c2.9,3.2,4.3,7.5,4.3,12.8v3.7h-27c0.1,4.6,1.3,8.1,3.5,10.5c2.2,2.4,5.3,3.6,9.3,3.6
		c4.2,0,8.4-0.9,12.5-2.6v5.3c-2.1,0.9-4.1,1.6-5.9,1.9S245.8,308.7,243.2,308.7z M241.6,273.1c-3.1,0-5.6,1-7.5,3.1
		c-1.9,2-3,4.9-3.3,8.5h20.5c0-3.7-0.8-6.6-2.5-8.6C247.1,274.1,244.7,273.1,241.6,273.1z"/>
	<path fill="#F2F2F2" d="M280.3,303.8c1,0,2.1-0.1,3-0.2c1-0.2,1.7-0.3,2.3-0.5v4.5c-0.6,0.3-1.6,0.6-2.8,0.8s-2.4,0.3-3.4,0.3
		c-7.6,0-11.4-4-11.4-12v-23.3h-5.6v-2.9l5.6-2.5l2.5-8.4h3.4v9.1h11.4v4.6H274v23c0,2.4,0.6,4.2,1.7,5.4
		C276.8,303.2,278.4,303.8,280.3,303.8z"/>
	<path fill="#F2F2F2" d="M293,258.2c0-1.4,0.3-2.4,1-3c0.7-0.6,1.5-0.9,2.5-0.9c1,0,1.8,0.3,2.5,1c0.7,0.6,1,1.6,1,3
		c0,1.3-0.3,2.3-1,3c-0.7,0.7-1.5,1-2.5,1c-1,0-1.8-0.3-2.5-1C293.3,260.6,293,259.6,293,258.2z M299.4,308h-5.9v-39.1h5.9V308z"/>
	<path fill="#F2F2F2" d="M338.8,308v-25.3c0-3.2-0.7-5.6-2.2-7.1c-1.5-1.6-3.7-2.4-6.8-2.4c-4.1,0-7.1,1.1-9,3.3
		c-1.9,2.2-2.9,5.9-2.9,11V308H312v-39.1h4.8l1,5.4h0.3c1.2-1.9,2.9-3.4,5.1-4.5c2.2-1.1,4.6-1.6,7.3-1.6c4.7,0,8.3,1.1,10.6,3.4
		c2.4,2.3,3.6,5.9,3.6,10.9V308H338.8z"/>
	<path fill="#F2F2F2" d="M388.9,268.9v3.7l-7.2,0.9c0.7,0.8,1.3,1.9,1.8,3.3c0.5,1.3,0.8,2.9,0.8,4.6c0,3.8-1.3,6.9-3.9,9.2
		c-2.6,2.3-6.2,3.4-10.8,3.4c-1.2,0-2.3-0.1-3.3-0.3c-2.5,1.3-3.8,3-3.8,5c0,1.1,0.4,1.9,1.3,2.4c0.9,0.5,2.4,0.8,4.5,0.8h6.9
		c4.2,0,7.5,0.9,9.8,2.7c2.3,1.8,3.4,4.4,3.4,7.8c0,4.3-1.7,7.6-5.2,9.9c-3.5,2.3-8.5,3.4-15.2,3.4c-5.1,0-9.1-1-11.8-2.9
		c-2.8-1.9-4.2-4.6-4.2-8.1c0-2.4,0.8-4.4,2.3-6.2c1.5-1.7,3.7-2.9,6.4-3.5c-1-0.5-1.8-1.2-2.5-2.1c-0.7-1-1-2.1-1-3.3
		c0-1.4,0.4-2.7,1.1-3.7c0.8-1.1,2-2.1,3.6-3.1c-2-0.8-3.7-2.2-4.9-4.2c-1.3-2-1.9-4.3-1.9-6.9c0-4.3,1.3-7.6,3.9-9.9
		s6.2-3.5,10.9-3.5c2,0,3.9,0.2,5.5,0.7H388.9z M357.7,314.6c0,2.1,0.9,3.7,2.7,4.8s4.3,1.6,7.7,1.6c5,0,8.7-0.7,11.1-2.2
		c2.4-1.5,3.6-3.5,3.6-6.1c0-2.1-0.7-3.6-2-4.4c-1.3-0.8-3.8-1.2-7.4-1.2h-7.1c-2.7,0-4.8,0.6-6.3,1.9
		C358.5,310.3,357.7,312.1,357.7,314.6z M360.9,281.4c0,2.7,0.8,4.8,2.3,6.2c1.5,1.4,3.7,2.1,6.5,2.1c5.8,0,8.7-2.8,8.7-8.4
		c0-5.9-2.9-8.8-8.8-8.8c-2.8,0-4.9,0.7-6.4,2.2C361.7,276.2,360.9,278.4,360.9,281.4z"/>
</g>
<g enable-background="new    ">
	<path fill="#F2F2F2" d="M436.2,308h-11.1v-43H411v-9.2h39.4v9.2h-14.2V308z"/>
	<path fill="#F2F2F2" d="M493.8,288c0,6.5-1.7,11.6-5.1,15.2s-8.2,5.5-14.3,5.5c-3.8,0-7.2-0.8-10.1-2.5c-2.9-1.7-5.2-4.1-6.7-7.2
		s-2.4-6.8-2.4-11c0-6.5,1.7-11.6,5.1-15.2c3.4-3.6,8.2-5.4,14.4-5.4c3.8,0,7.2,0.8,10.1,2.5c2.9,1.7,5.2,4.1,6.7,7.2
		C493,280.1,493.8,283.8,493.8,288z M466.2,288c0,4,0.6,6.9,1.9,9c1.3,2,3.4,3,6.3,3c2.9,0,5-1,6.3-3c1.3-2,1.9-5,1.9-9
		c0-4-0.6-6.9-1.9-8.9c-1.3-2-3.4-3-6.3-3c-2.9,0-5,1-6.3,2.9S466.2,284,466.2,288z"/>
	<path fill="#F2F2F2" d="M538.6,308h-10.9v-23.3c0-2.9-0.5-5-1.4-6.5c-1-1.4-2.5-2.2-4.6-2.2c-2.8,0-4.8,1-6.1,3.1
		c-1.3,2-1.9,5.4-1.9,10.1V308h-10.9v-39.9h8.3l1.5,5.1h0.6c1.1-1.8,2.6-3.3,4.6-4.3c2-1,4.3-1.6,7-1.6c6,0,10,2,12.1,5.9h1
		c1.1-1.9,2.6-3.3,4.7-4.3c2.1-1,4.4-1.5,7.1-1.5c4.5,0,7.9,1.2,10.3,3.5c2.3,2.3,3.5,6,3.5,11.2v26h-10.9v-23.3
		c0-2.9-0.5-5-1.4-6.5c-1-1.4-2.5-2.2-4.6-2.2c-2.7,0-4.7,1-6,2.9c-1.3,1.9-2,4.9-2,9.1V308z"/>
	<path fill="#F2F2F2" d="M610.9,288c0,6.5-1.7,11.6-5.1,15.2s-8.2,5.5-14.3,5.5c-3.8,0-7.2-0.8-10.1-2.5c-2.9-1.7-5.2-4.1-6.7-7.2
		s-2.4-6.8-2.4-11c0-6.5,1.7-11.6,5.1-15.2c3.4-3.6,8.2-5.4,14.4-5.4c3.8,0,7.2,0.8,10.1,2.5c2.9,1.7,5.2,4.1,6.7,7.2
		C610.1,280.1,610.9,283.8,610.9,288z M583.3,288c0,4,0.6,6.9,1.9,9c1.3,2,3.4,3,6.3,3c2.9,0,5-1,6.3-3c1.3-2,1.9-5,1.9-9
		c0-4-0.6-6.9-1.9-8.9c-1.3-2-3.4-3-6.3-3c-2.9,0-5,1-6.3,2.9S583.3,284,583.3,288z"/>
	<path fill="#F2F2F2" d="M642.2,267.3c1.5,0,2.7,0.1,3.7,0.3l-0.8,10.2c-0.9-0.2-2-0.4-3.2-0.4c-3.5,0-6.2,0.9-8.1,2.7
		c-1.9,1.8-2.9,4.3-2.9,7.5V308h-10.9v-39.9h8.2l1.6,6.7h0.5c1.2-2.2,2.9-4,5-5.4C637.4,268,639.7,267.3,642.2,267.3z"/>
	<path fill="#F2F2F2" d="M675.4,267.3c1.5,0,2.7,0.1,3.7,0.3l-0.8,10.2c-0.9-0.2-2-0.4-3.2-0.4c-3.5,0-6.2,0.9-8.1,2.7
		c-1.9,1.8-2.9,4.3-2.9,7.5V308h-10.9v-39.9h8.2l1.6,6.7h0.5c1.2-2.2,2.9-4,5-5.4C670.6,268,672.9,267.3,675.4,267.3z"/>
	<path fill="#F2F2F2" d="M722.6,288c0,6.5-1.7,11.6-5.1,15.2s-8.2,5.5-14.3,5.5c-3.8,0-7.2-0.8-10.1-2.5c-2.9-1.7-5.2-4.1-6.7-7.2
		s-2.4-6.8-2.4-11c0-6.5,1.7-11.6,5.1-15.2c3.4-3.6,8.2-5.4,14.4-5.4c3.8,0,7.2,0.8,10.1,2.5c2.9,1.7,5.2,4.1,6.7,7.2
		C721.8,280.1,722.6,283.8,722.6,288z M695,288c0,4,0.6,6.9,1.9,9c1.3,2,3.4,3,6.3,3c2.9,0,5-1,6.3-3c1.3-2,1.9-5,1.9-9
		c0-4-0.6-6.9-1.9-8.9c-1.3-2-3.4-3-6.3-3c-2.9,0-5,1-6.3,2.9S695,284,695,288z"/>
	<path fill="#F2F2F2" d="M764.4,308l-3.1-14l-4.1-17.6h-0.2l-7.3,31.6h-11.7l-11.4-39.9h10.9l4.6,17.7c0.7,3.2,1.5,7.5,2.2,13.1h0.2
		c0.1-1.8,0.5-4.7,1.2-8.6l0.6-3l4.9-19.1h12l4.7,19.1c0.1,0.5,0.2,1.3,0.4,2.3c0.2,1,0.4,2.1,0.6,3.3c0.2,1.2,0.4,2.3,0.5,3.4
		c0.2,1.1,0.2,2,0.3,2.7h0.2c0.2-1.7,0.6-4.1,1.1-7.1c0.5-3,0.9-5,1.2-6.1l4.8-17.7h10.7L776.3,308H764.4z"/>
</g>
<g enable-background="new    ">
	<path fill="#F2F2F2" d="M137.7,360l-1.7-4.8h-6.7l-1.7,4.8h-3l6.5-17.5h3.1l6.5,17.5H137.7z M135.2,352.7l-1.6-4.7
		c-0.1-0.3-0.3-0.8-0.5-1.5c-0.2-0.7-0.4-1.2-0.4-1.5c-0.2,1-0.5,2-0.9,3.2l-1.6,4.5H135.2z"/>
	<path fill="#F2F2F2" d="M157.5,360H154l-8.6-13.9h-0.1l0.1,0.8c0.1,1.5,0.2,2.8,0.2,4v9H143v-17.4h3.5l8.5,13.8h0.1
		c0-0.2,0-0.8-0.1-2c0-1.1-0.1-2-0.1-2.7v-9.1h2.6V360z"/>
	<path fill="#F2F2F2" d="M167,350.5l4.1-7.9h3.1l-5.8,10.7v6.7h-2.9v-6.7l-5.8-10.7h3.1L167,350.5z"/>
	<path fill="#F2F2F2" d="M188.8,360H186v-15h-5.1v-2.4H194v2.4h-5.1V360z"/>
	<path fill="#F2F2F2" d="M196.6,360v-17.4h2.8V360H196.6z"/>
	<path fill="#F2F2F2" d="M211.6,360l-5-14.5h-0.1c0.1,2.2,0.2,4.2,0.2,6.1v8.5h-2.6v-17.4h4l4.8,13.8h0.1l5-13.8h4V360h-2.7v-8.6
		c0-0.9,0-2,0.1-3.4c0-1.4,0.1-2.2,0.1-2.5h-0.1l-5.2,14.5H211.6z"/>
	<path fill="#F2F2F2" d="M236.4,360h-9.8v-17.4h9.8v2.4h-7v4.7h6.6v2.4h-6.6v5.5h7V360z"/>
	<path fill="#F2F2F2" d="M239.4,358.5c0-0.6,0.2-1,0.5-1.3c0.3-0.3,0.7-0.5,1.3-0.5c0.6,0,1,0.2,1.3,0.5c0.3,0.3,0.5,0.8,0.5,1.3
		c0,0.6-0.2,1-0.5,1.3c-0.3,0.3-0.7,0.5-1.3,0.5s-1-0.2-1.3-0.5C239.6,359.5,239.4,359,239.4,358.5z"/>
	<path fill="#F2F2F2" d="M264,360l-1.7-4.8h-6.7l-1.7,4.8h-3l6.5-17.5h3.1L267,360H264z M261.5,352.7l-1.6-4.7
		c-0.1-0.3-0.3-0.8-0.5-1.5c-0.2-0.7-0.4-1.2-0.4-1.5c-0.2,1-0.5,2-0.9,3.2l-1.6,4.5H261.5z"/>
	<path fill="#F2F2F2" d="M283.8,360h-3.5l-8.6-13.9h-0.1l0.1,0.8c0.1,1.5,0.2,2.8,0.2,4v9h-2.6v-17.4h3.5l8.5,13.8h0.1
		c0-0.2,0-0.8-0.1-2c0-1.1-0.1-2-0.1-2.7v-9.1h2.6V360z"/>
	<path fill="#F2F2F2" d="M293.3,350.5l4.1-7.9h3.1l-5.8,10.7v6.7h-2.9v-6.7l-5.8-10.7h3.1L293.3,350.5z"/>
	<path fill="#F2F2F2" d="M320.7,347.8c0,1.8-0.6,3.2-1.8,4.2c-1.2,1-2.9,1.5-5.1,1.5H312v6.5h-2.8v-17.4h5c2.2,0,3.8,0.4,4.9,1.3
		S320.7,346.1,320.7,347.8z M312,351.1h1.5c1.5,0,2.5-0.3,3.2-0.8c0.7-0.5,1-1.3,1-2.4c0-1-0.3-1.7-0.9-2.2
		c-0.6-0.5-1.6-0.7-2.9-0.7h-2V351.1z"/>
	<path fill="#F2F2F2" d="M324.2,360v-17.4h2.8v15h7.4v2.4H324.2z"/>
	<path fill="#F2F2F2" d="M348.2,360l-1.7-4.8h-6.7l-1.7,4.8h-3l6.5-17.5h3.1l6.5,17.5H348.2z M345.7,352.7l-1.6-4.7
		c-0.1-0.3-0.3-0.8-0.5-1.5c-0.2-0.7-0.4-1.2-0.4-1.5c-0.2,1-0.5,2-0.9,3.2l-1.6,4.5H345.7z"/>
	<path fill="#F2F2F2" d="M360.9,344.8c-1.6,0-2.9,0.6-3.9,1.7c-0.9,1.2-1.4,2.8-1.4,4.8c0,2.1,0.5,3.7,1.4,4.8
		c0.9,1.1,2.2,1.6,3.9,1.6c0.7,0,1.5-0.1,2.1-0.2c0.7-0.1,1.4-0.3,2.2-0.6v2.4c-1.4,0.5-2.9,0.8-4.6,0.8c-2.5,0-4.5-0.8-5.9-2.3
		c-1.4-1.5-2-3.8-2-6.6c0-1.8,0.3-3.4,1-4.7c0.7-1.4,1.6-2.4,2.9-3.1c1.3-0.7,2.7-1.1,4.4-1.1c1.8,0,3.4,0.4,4.9,1.1l-1,2.4
		c-0.6-0.3-1.2-0.5-1.9-0.7C362.3,344.9,361.6,344.8,360.9,344.8z"/>
	<path fill="#F2F2F2" d="M378.8,360h-9.8v-17.4h9.8v2.4h-7v4.7h6.6v2.4h-6.6v5.5h7V360z"/>
	<path fill="#F2F2F2" d="M381.8,358.5c0-0.6,0.2-1,0.5-1.3c0.3-0.3,0.7-0.5,1.3-0.5c0.6,0,1,0.2,1.3,0.5c0.3,0.3,0.5,0.8,0.5,1.3
		c0,0.6-0.2,1-0.5,1.3c-0.3,0.3-0.7,0.5-1.3,0.5s-1-0.2-1.3-0.5C382,359.5,381.8,359,381.8,358.5z"/>
	<path fill="#F2F2F2" d="M410.1,360h-3.5l-8.6-13.9h-0.1l0.1,0.8c0.1,1.5,0.2,2.8,0.2,4v9h-2.6v-17.4h3.5l8.5,13.8h0.1
		c0-0.2,0-0.8-0.1-2c0-1.1-0.1-2-0.1-2.7v-9.1h2.6V360z"/>
	<path fill="#F2F2F2" d="M425.4,360l-1.7-4.8h-6.7l-1.7,4.8h-3l6.5-17.5h3.1l6.5,17.5H425.4z M423,352.7l-1.6-4.7
		c-0.1-0.3-0.3-0.8-0.5-1.5c-0.2-0.7-0.4-1.2-0.4-1.5c-0.2,1-0.5,2-0.9,3.2l-1.6,4.5H423z"/>
	<path fill="#F2F2F2" d="M436.8,360h-2.8v-15h-5.1v-2.4h13.1v2.4h-5.1V360z"/>
	<path fill="#F2F2F2" d="M444.6,360v-17.4h2.8V360H444.6z"/>
	<path fill="#F2F2F2" d="M467.4,351.2c0,2.8-0.7,5-2.1,6.6c-1.4,1.6-3.4,2.4-6,2.4c-2.6,0-4.6-0.8-6.1-2.3c-1.4-1.6-2.1-3.8-2.1-6.6
		c0-2.9,0.7-5.1,2.1-6.6c1.4-1.5,3.4-2.3,6.1-2.3c2.6,0,4.6,0.8,6,2.3S467.4,348.4,467.4,351.2z M454.2,351.2c0,2.1,0.4,3.8,1.3,4.9
		c0.9,1.1,2.1,1.7,3.8,1.7c1.7,0,3-0.5,3.8-1.6c0.9-1.1,1.3-2.7,1.3-4.9c0-2.1-0.4-3.8-1.3-4.9c-0.9-1.1-2.1-1.7-3.8-1.7
		c-1.7,0-3,0.6-3.9,1.7C454.6,347.5,454.2,349.1,454.2,351.2z"/>
	<path fill="#F2F2F2" d="M485.7,360h-3.5l-8.6-13.9h-0.1l0.1,0.8c0.1,1.5,0.2,2.8,0.2,4v9h-2.6v-17.4h3.5l8.5,13.8h0.1
		c0-0.2,0-0.8-0.1-2c0-1.1-0.1-2-0.1-2.7v-9.1h2.6V360z"/>
	<path fill="#F2F2F2" d="M506.3,360h-3.1l-3-10.4c-0.1-0.5-0.3-1.1-0.5-2s-0.3-1.4-0.3-1.8c-0.1,0.5-0.2,1.2-0.4,2
		c-0.2,0.8-0.3,1.4-0.4,1.8l-2.9,10.3h-3.1l-2.2-8.7l-2.3-8.7h2.9l2.5,10.1c0.4,1.6,0.7,3.1,0.8,4.3c0.1-0.7,0.2-1.4,0.4-2.3
		c0.2-0.8,0.3-1.5,0.5-2l2.8-10.2h2.8l2.9,10.2c0.3,0.9,0.6,2.4,0.9,4.2c0.1-1.1,0.4-2.6,0.9-4.3l2.5-10.1h2.9L506.3,360z"/>
	<path fill="#F2F2F2" d="M513.3,360v-17.4h2.8V360H513.3z"/>
	<path fill="#F2F2F2" d="M534.9,351.1c0,2.9-0.8,5.1-2.4,6.6s-3.9,2.3-6.9,2.3h-4.9v-17.4h5.4c2.8,0,4.9,0.7,6.5,2.2
		C534.1,346.3,534.9,348.4,534.9,351.1z M531.9,351.2c0-4.2-1.9-6.2-5.8-6.2h-2.5v12.6h2C529.8,357.6,531.9,355.4,531.9,351.2z"/>
	<path fill="#F2F2F2" d="M548.5,360h-9.8v-17.4h9.8v2.4h-7v4.7h6.6v2.4h-6.6v5.5h7V360z"/>
	<path fill="#F2F2F2" d="M569.4,360l-1.7-4.8H561l-1.7,4.8h-3l6.5-17.5h3.1l6.5,17.5H569.4z M566.9,352.7l-1.6-4.7
		c-0.1-0.3-0.3-0.8-0.5-1.5c-0.2-0.7-0.4-1.2-0.4-1.5c-0.2,1-0.5,2-0.9,3.2l-1.6,4.5H566.9z"/>
	<path fill="#F2F2F2" d="M588.3,342.6v11.3c0,1.3-0.3,2.4-0.8,3.4c-0.6,1-1.3,1.7-2.4,2.2c-1,0.5-2.3,0.8-3.7,0.8
		c-2.2,0-3.8-0.6-5-1.7s-1.8-2.7-1.8-4.7v-11.2h2.9v11c0,1.4,0.3,2.5,1,3.2c0.7,0.7,1.7,1,3.1,1c2.7,0,4-1.4,4-4.2v-11H588.3z"/>
	<path fill="#F2F2F2" d="M606.9,351.1c0,2.9-0.8,5.1-2.4,6.6s-3.9,2.3-6.9,2.3h-4.9v-17.4h5.4c2.8,0,4.9,0.7,6.5,2.2
		C606.2,346.3,606.9,348.4,606.9,351.1z M603.9,351.2c0-4.2-1.9-6.2-5.8-6.2h-2.5v12.6h2C601.9,357.6,603.9,355.4,603.9,351.2z"/>
	<path fill="#F2F2F2" d="M610.7,360v-17.4h2.8V360H610.7z"/>
	<path fill="#F2F2F2" d="M633.6,351.2c0,2.8-0.7,5-2.1,6.6c-1.4,1.6-3.4,2.4-6,2.4c-2.6,0-4.6-0.8-6.1-2.3c-1.4-1.6-2.1-3.8-2.1-6.6
		c0-2.9,0.7-5.1,2.1-6.6c1.4-1.5,3.4-2.3,6.1-2.3c2.6,0,4.6,0.8,6,2.3S633.6,348.4,633.6,351.2z M620.3,351.2c0,2.1,0.4,3.8,1.3,4.9
		c0.9,1.1,2.1,1.7,3.8,1.7c1.7,0,3-0.5,3.8-1.6c0.9-1.1,1.3-2.7,1.3-4.9c0-2.1-0.4-3.8-1.3-4.9c-0.9-1.1-2.1-1.7-3.8-1.7
		c-1.7,0-3,0.6-3.9,1.7C620.7,347.5,620.3,349.1,620.3,351.2z"/>
	<path fill="#F2F2F2" d="M653.6,342.6h3l-6.1,17.4h-3l-6.1-17.4h2.9l3.6,10.8c0.2,0.5,0.4,1.2,0.6,2c0.2,0.8,0.4,1.4,0.4,1.8
		c0.1-0.6,0.3-1.3,0.5-2.1c0.2-0.8,0.4-1.4,0.5-1.8L653.6,342.6z"/>
	<path fill="#F2F2F2" d="M658.8,360v-17.4h2.8V360H658.8z"/>
	<path fill="#F2F2F2" d="M676.3,355.2c0,1.5-0.6,2.8-1.7,3.6c-1.1,0.9-2.7,1.3-4.6,1.3s-3.6-0.3-4.8-0.9v-2.7
		c0.8,0.4,1.6,0.7,2.5,0.9c0.9,0.2,1.7,0.3,2.5,0.3c1.1,0,2-0.2,2.5-0.6s0.8-1,0.8-1.7c0-0.7-0.2-1.2-0.7-1.7s-1.5-1-3-1.6
		c-1.6-0.6-2.7-1.4-3.4-2.2s-1-1.8-1-3c0-1.5,0.5-2.6,1.5-3.4s2.4-1.2,4.2-1.2c1.7,0,3.3,0.4,5,1.1l-0.9,2.3c-1.5-0.7-2.9-1-4.1-1
		c-0.9,0-1.6,0.2-2.1,0.6c-0.5,0.4-0.7,0.9-0.7,1.6c0,0.5,0.1,0.8,0.3,1.2s0.5,0.6,0.9,0.9c0.4,0.3,1.2,0.7,2.4,1.1
		c1.3,0.5,2.2,1,2.8,1.5c0.6,0.5,1,1,1.3,1.6C676.1,353.8,676.3,354.5,676.3,355.2z"/>
	<path fill="#F2F2F2" d="M693.3,342.6v11.3c0,1.3-0.3,2.4-0.8,3.4c-0.6,1-1.3,1.7-2.4,2.2c-1,0.5-2.3,0.8-3.7,0.8
		c-2.2,0-3.8-0.6-5-1.7s-1.8-2.7-1.8-4.7v-11.2h2.9v11c0,1.4,0.3,2.5,1,3.2c0.7,0.7,1.7,1,3.1,1c2.7,0,4-1.4,4-4.2v-11H693.3z"/>
	<path fill="#F2F2F2" d="M708.5,360l-1.7-4.8h-6.7l-1.7,4.8h-3l6.5-17.5h3.1l6.5,17.5H708.5z M706,352.7l-1.6-4.7
		c-0.1-0.3-0.3-0.8-0.5-1.5c-0.2-0.7-0.4-1.2-0.4-1.5c-0.2,1-0.5,2-0.9,3.2l-1.6,4.5H706z"/>
	<path fill="#F2F2F2" d="M713.8,360v-17.4h2.8v15h7.4v2.4H713.8z"/>
	<path fill="#F2F2F2" d="M726.3,358.5c0-0.6,0.2-1,0.5-1.3c0.3-0.3,0.7-0.5,1.3-0.5c0.6,0,1,0.2,1.3,0.5c0.3,0.3,0.5,0.8,0.5,1.3
		c0,0.6-0.2,1-0.5,1.3s-0.7,0.5-1.3,0.5s-1-0.2-1.3-0.5S726.3,359,726.3,358.5z"/>
</g>
</svg>
